<?xml version="1.0" encoding="utf-8"?>
<!-- Generator: Adobe Illustrator 21.0.2, SVG Export Plug-In . SVG Version: 6.00 Build 0)  -->
<svg version="1.1" id="Camada_1" xmlns="http://www.w3.org/2000/svg" xmlns:xlink="http://www.w3.org/1999/xlink" x="0px" y="0px"
	 viewBox="0 0 265.5 156.4" style="enable-background:new 0 0 265.5 156.4;" xml:space="preserve">
<style type="text/css">
	.st0{fill:#FFFFFF;}
	.st1{fill:#048BAA;}
	.st2{fill:#065E73;}
	.st3{fill:#79AAD0;}
</style>
<g>
	<path class="st0" d="M12.1,75.1c-4.1,0-8.1,0-12.2,0c0,0,0,0,0,0c0-0.2,0-0.5,0-0.7c0-0.1,0-0.2,0-0.4c0-0.4,0.1-0.8,0.1-1.2
		c0-0.1,0-0.2,0-0.3c0-0.3,0.1-0.7,0.2-1.1c0-0.2,0.1-0.4,0.1-0.6c0.1-0.3,0.1-0.6,0.2-0.9c0.1-0.3,0.1-0.6,0.2-0.9
		c0-0.1,0.1-0.3,0.1-0.4c0-0.2,0.1-0.3,0.1-0.5c0.1-0.2,0.1-0.4,0.2-0.6c0.1-0.4,0.2-0.7,0.3-1.1c0.1-0.2,0.1-0.4,0.2-0.6
		C1.8,65.7,2,65.3,2.1,65c0-0.1,0.1-0.2,0.1-0.4C2.5,64,2.8,63.5,3,63.1c0,0,0,0,0,0c0.3-0.5,0.5-1,0.7-1.3c0,0,0,0,0,0
		c0-0.1,0.1-0.2,0.2-0.3c-0.8,1.4-1.4,2.7-1.8,3.8C5.4,68.5,8.7,71.8,12.1,75.1z"/>
	<circle class="st0" cx="204.1" cy="68.2" r="7.2"/>
	<circle class="st0" cx="172.3" cy="68.2" r="7.2"/>
	<circle class="st0" cx="141.5" cy="68.4" r="7.2"/>
	<circle class="st0" cx="110.3" cy="67.9" r="7.2"/>
	<circle class="st0" cx="79.6" cy="68.5" r="7.2"/>
	<path class="st0" d="M38.3,62.1c0,5.5,0,12.9,0,12.9c-3.7,0-7.4,0-11.1,0C20.8,68.7,14.4,62.3,8,55.9c0,0,0,0,0,0
		c0.2,0,0.5,0,0.7,0c9.9,0.1,19.7,0.2,29.6,0.3V62.1z"/>
	<path class="st1" d="M229.3,5.5c6.3-6.2,15.2-5.7,23.4-5.1c4.6,0.3,9.7,1.6,11.7,6.2c1,2.2,1.2,4.7,1.1,7.1
		c0,5.2-0.2,10.4-0.2,15.6c0,5.4,0,10.9,0,16.3C253,32.6,240.7,19.5,228.4,6.4C228.7,6.1,229,5.8,229.3,5.5z"/>
	<path class="st1" d="M0.3,82.1c88.4,0.3,176.8,0.7,265.1,1c0,0-0.1,0.3-0.2,0.9c0.1-0.2,0.2-0.4,0.2-0.6c0-0.1,0-0.1,0-7
		c0-4.2,0-8.4-0.1-12.6c0,0.8,0,1.5,0,2.3c-14.8-14.6-29.7-29.2-44.5-43.8c-0.8,2.5-1.4,5-2,7.6c-1.1,5-2,10.1-2.4,15.2
		c0,0.1-8.8,0-9.3,0c-10.6,0-21.1,0-31.7,0.1c-14.7,0-29.4,0.1-44.2,0.1c-15.4,0-30.7,0.1-46.1,0.1c-12.5,0-25,0-37.5,0.1
		c-13.8,0-30-1.5-39.7,10.5c0.2,0,0.4,0,0.6,0c9.9,0.1,19.7,0.2,29.6,0.3v6c0,5.5,0,12.9,0,12.9c-3.7,0-7.4,0-11.1,0
		c-5,0-10,0.1-15,0.1c0,0,0,0,0,0c-4.1,0-8.1,0-12.2,0C-0.2,78,0.1,80.4,0.3,82.1z M197,68.2c0-4,3.2-7.2,7.2-7.2s7.2,3.2,7.2,7.2
		c0,4-3.2,7.2-7.2,7.2S197,72.1,197,68.2z M165.1,68.2c0-4,3.2-7.2,7.2-7.2c4,0,7.2,3.2,7.2,7.2c0,4-3.2,7.2-7.2,7.2
		C168.4,75.4,165.1,72.1,165.1,68.2z M134.3,68.4c0-4,3.2-7.2,7.2-7.2c4,0,7.2,3.2,7.2,7.2c0,4-3.2,7.2-7.2,7.2
		C137.5,75.5,134.3,72.3,134.3,68.4z M103.1,67.9c0-4,3.2-7.2,7.2-7.2c4,0,7.2,3.2,7.2,7.2c0,4-3.2,7.2-7.2,7.2
		C106.4,75,103.1,71.8,103.1,67.9z M72.5,68.5c0-4,3.2-7.2,7.2-7.2s7.2,3.2,7.2,7.2c0,4-3.2,7.2-7.2,7.2S72.5,72.5,72.5,68.5z"/>
	<path class="st2" d="M220.9,22.3C220.9,22.3,220.9,22.3,220.9,22.3c0.1-0.5,0.3-1,0.5-1.4c0.2-0.7,0.5-1.4,0.7-2
		c0.2-0.6,0.4-1.1,0.6-1.6c0.1-0.2,0.2-0.4,0.3-0.7c0.4-1.1,0.9-2.1,1.2-2.9c0.6-1.5,1.3-2.8,2.2-4.2c0,0,0-0.1,0-0.1
		c0.1-0.1,0.1-0.2,0.2-0.3c0.1-0.2,0.3-0.4,0.4-0.6c0.5-0.8,1-1.4,1.4-1.9c0,0,0.1-0.1,0.1-0.1c0,0,0,0,0,0
		c12.3,13.1,24.6,26.1,36.9,39.2c0,0,0,0,0,0c0,6.1,0,12.1,0,18.2c0,0.8,0,1.5,0,2.3C250.6,51.5,235.7,36.9,220.9,22.3z"/>
	<path class="st3" d="M12.1,75.1C12.1,75.1,12.1,75.1,12.1,75.1c-3.4-3.3-6.7-6.6-10.1-9.9c0.4-1.1,1-2.4,1.8-3.8c0,0,0,0,0-0.1
		c0.1-0.1,0.1-0.2,0.2-0.3c0.1-0.2,0.3-0.4,0.4-0.6c0.1-0.2,0.2-0.4,0.3-0.6c0,0,0,0,0-0.1c0.1-0.1,0.2-0.2,0.3-0.4
		c0.1-0.2,0.2-0.3,0.4-0.5c0.1-0.2,0.2-0.3,0.4-0.5c0-0.1,0.1-0.1,0.1-0.2c0,0,0,0,0-0.1c0.1-0.1,0.2-0.2,0.3-0.3
		c0.2-0.2,0.4-0.5,0.6-0.7C6.9,57.1,6.9,57,7,57c0,0,0.1-0.1,0.1-0.1c0.3-0.3,0.6-0.7,0.9-1c6.4,6.4,12.8,12.8,19.2,19.2
		C22.2,75.1,17.1,75.1,12.1,75.1z"/>
	<polygon class="st2" points="129.9,44.9 158.4,9.9 185.1,9.9 171.1,44.9 	"/>
	<path class="st2" d="M265.3,84c-1.1,4.5-7.3,25.3-31,28.2h-66.7l17.6,44.3h-27.6l-35.4-44.3c-10.4,0-20.9,0-31.3,0
		c-16.5,0-33.2-0.6-49.7,0c-4.8,0.2-9.7,0.2-14.5-0.7c-13.9-2.6-22.9-14.6-26-27.8c-0.2-0.7-0.3-1.2-0.3-1.5c0,0,0,0,0-0.1
		c88.4,0.3,176.8,0.7,265.1,1C265.5,83.1,265.4,83.4,265.3,84z"/>
</g>
</svg>
