<?xml version="1.0" encoding="utf-8"?>
<!-- Generator: Adobe Illustrator 21.0.2, SVG Export Plug-In . SVG Version: 6.00 Build 0)  -->
<svg version="1.1" id="Camada_1" xmlns="http://www.w3.org/2000/svg" xmlns:xlink="http://www.w3.org/1999/xlink" x="0px" y="0px"
	 viewBox="0 0 265.5 156.4" style="enable-background:new 0 0 265.5 156.4;" xml:space="preserve">
<style type="text/css">
	.st0{fill:#FFFFFF;}
	.st1{fill:#076A89;}
	.st2{fill:#04465B;}
	.st3{fill:#79AAD0;}
</style>
<g>
	<path class="st0" d="M253.3,75.1c4.1,0,8.1,0,12.2,0c0,0,0,0,0,0c0-0.2,0-0.5,0-0.7c0-0.1,0-0.2,0-0.4c0-0.4-0.1-0.8-0.1-1.2
		c0-0.1,0-0.2,0-0.3c0-0.3-0.1-0.7-0.2-1.1c0-0.2-0.1-0.4-0.1-0.6c-0.1-0.3-0.1-0.6-0.2-0.9c-0.1-0.3-0.1-0.6-0.2-0.9
		c0-0.1-0.1-0.3-0.1-0.4c0-0.2-0.1-0.3-0.1-0.5c-0.1-0.2-0.1-0.4-0.2-0.6c-0.1-0.4-0.2-0.7-0.3-1.1c-0.1-0.2-0.1-0.4-0.2-0.6
		c-0.1-0.4-0.3-0.8-0.4-1.2c0-0.1-0.1-0.2-0.1-0.4c-0.2-0.6-0.5-1.1-0.7-1.5c0,0,0,0,0,0c-0.3-0.5-0.5-1-0.7-1.3c0,0,0,0,0,0
		c0-0.1-0.1-0.2-0.2-0.3c0.8,1.4,1.4,2.7,1.8,3.8C260,68.5,256.7,71.8,253.3,75.1z"/>
	<path class="st1" d="M36.1,5.4c-6.3-6.2-15.2-5.7-23.4-5.1C8.1,0.7,3,2,1,6.6c-1,2.2-1.2,4.7-1.1,7.1c0,5.2,0.2,10.4,0.2,15.6
		c0,5.4,0,10.9,0,16.3C12.4,32.5,24.7,19.5,37,6.4C36.7,6.1,36.4,5.7,36.1,5.4z"/>
	<path class="st1" d="M265.5,75.1c-4.1,0-8.1,0-12.2,0c0,0,0,0,0,0c-5,0-10-0.1-15-0.1c-3.7,0-7.4,0-11.1,0c0,0,0-7.4,0-12.9v-6
		c9.9-0.1,19.7-0.2,29.6-0.3c0.2,0,0.4,0,0.6,0c-9.7-12-25.9-10.5-39.7-10.5c-12.5,0-25,0-37.5-0.1c-15.4,0-30.7-0.1-46.1-0.1
		c-14.7,0-29.4-0.1-44.2-0.1c-10.6,0-21.1,0-31.7-0.1c-0.5,0-9.3,0.1-9.3,0c-0.4-5.1-1.3-10.2-2.4-15.2c-0.6-2.5-1.2-5.1-2-7.6
		C29.7,36.8,14.8,51.4,0,66.1c0-0.8,0-1.5,0-2.3C0,68,0,72.2,0,76.3c0,6.9-0.1,6.9,0,7c0,0.2,0.1,0.4,0.2,0.6
		c-0.1-0.5-0.2-0.9-0.2-0.9c88.4-0.3,176.8-0.7,265.1-1C265.3,80.4,265.6,77.9,265.5,75.1z M61.3,75.3c-4,0-7.2-3.2-7.2-7.2
		c0-4,3.2-7.2,7.2-7.2s7.2,3.2,7.2,7.2C68.4,72.1,65.2,75.3,61.3,75.3z M93.1,75.3c-4,0-7.2-3.2-7.2-7.2c0-4,3.2-7.2,7.2-7.2
		c4,0,7.2,3.2,7.2,7.2C100.3,72.1,97,75.3,93.1,75.3z M123.9,75.5c-4,0-7.2-3.2-7.2-7.2c0-4,3.2-7.2,7.2-7.2c4,0,7.2,3.2,7.2,7.2
		C131.1,72.3,127.9,75.5,123.9,75.5z M155.1,75c-4,0-7.2-3.2-7.2-7.2c0-4,3.2-7.2,7.2-7.2c4,0,7.2,3.2,7.2,7.2
		C162.3,71.8,159,75,155.1,75z M185.8,75.7c-4,0-7.2-3.2-7.2-7.2c0-4,3.2-7.2,7.2-7.2s7.2,3.2,7.2,7.2
		C192.9,72.4,189.7,75.7,185.8,75.7z"/>
	<path class="st2" d="M44.5,22.2C44.5,22.2,44.5,22.2,44.5,22.2c-0.1-0.5-0.3-1-0.5-1.4c-0.2-0.7-0.5-1.4-0.7-2
		c-0.2-0.6-0.4-1.1-0.6-1.6c-0.1-0.2-0.2-0.4-0.3-0.7c-0.4-1.1-0.9-2.1-1.2-2.9c-0.6-1.5-1.3-2.8-2.2-4.2c0,0,0-0.1,0-0.1
		C39,9.2,39,9.1,38.9,9c-0.1-0.2-0.3-0.4-0.4-0.6c-0.5-0.8-1-1.4-1.4-1.9c0,0-0.1-0.1-0.1-0.1c0,0,0,0,0,0
		C24.7,19.5,12.4,32.5,0.1,45.6c0,0,0,0,0,0c0,6.1,0,12.1,0,18.2c0,0.8,0,1.5,0,2.3C14.8,51.4,29.7,36.8,44.5,22.2z"/>
	<circle class="st0" cx="61.3" cy="68.2" r="7.2"/>
	<circle class="st0" cx="93.1" cy="68.2" r="7.2"/>
	<circle class="st0" cx="123.9" cy="68.3" r="7.2"/>
	<circle class="st0" cx="155.1" cy="67.8" r="7.2"/>
	<circle class="st0" cx="185.8" cy="68.5" r="7.2"/>
	<path class="st0" d="M227.1,62.1c0,5.5,0,12.9,0,12.9c3.7,0,7.4,0,11.1,0c6.4-6.4,12.8-12.8,19.2-19.2c0,0,0,0,0,0
		c-0.2,0-0.5,0-0.7,0c-9.9,0.1-19.7,0.2-29.6,0.3V62.1z"/>
	<path class="st3" d="M253.3,75.1C253.3,75.1,253.3,75.1,253.3,75.1c3.4-3.3,6.7-6.6,10.1-9.9c-0.4-1.1-1-2.4-1.8-3.8c0,0,0,0,0-0.1
		c-0.1-0.1-0.1-0.2-0.2-0.3c-0.1-0.2-0.3-0.4-0.4-0.6c-0.1-0.2-0.2-0.4-0.3-0.6c0,0,0,0,0-0.1c-0.1-0.1-0.2-0.2-0.3-0.4
		c-0.1-0.2-0.2-0.3-0.4-0.5c-0.1-0.2-0.2-0.3-0.4-0.5c0-0.1-0.1-0.1-0.1-0.2c0,0,0,0,0-0.1c-0.1-0.1-0.2-0.2-0.3-0.3
		c-0.2-0.2-0.4-0.5-0.6-0.7c-0.1-0.1-0.1-0.1-0.2-0.2c0,0-0.1-0.1-0.1-0.1c-0.3-0.3-0.6-0.7-0.9-1c-6.4,6.4-12.8,12.8-19.2,19.2
		C243.3,75.1,248.3,75.1,253.3,75.1z"/>
	<polygon class="st2" points="135.5,44.9 107,9.9 80.3,9.9 94.3,44.9 	"/>
	<path class="st2" d="M0.1,83.9c1.1,4.5,7.3,25.3,31,28.2h66.7l-17.6,44.3h27.6l35.4-44.3c10.4,0,20.9,0,31.3,0
		c16.5,0,33.2-0.6,49.7,0c4.8,0.2,9.7,0.2,14.5-0.7c13.9-2.6,22.9-14.6,26-27.8c0.2-0.7,0.3-1.2,0.3-1.5c0,0,0,0,0-0.1
		c-88.4,0.3-176.8,0.7-265.1,1C-0.1,83.1,0,83.4,0.1,83.9z"/>
</g>
</svg>
