<?xml version="1.0" encoding="utf-8"?>
<!-- Generator: Adobe Illustrator 21.0.2, SVG Export Plug-In . SVG Version: 6.00 Build 0)  -->
<svg version="1.1" id="Camada_1" xmlns="http://www.w3.org/2000/svg" xmlns:xlink="http://www.w3.org/1999/xlink" x="0px" y="0px"
	 viewBox="0 0 142.1 217.8" style="enable-background:new 0 0 142.1 217.8;" xml:space="preserve">
<style type="text/css">
	.st0{fill:none;stroke:#C49A6C;stroke-linecap:round;stroke-miterlimit:10;}
	.st1{fill:#FFFFFF;}
	.st2{fill:#F05123;}
	.st3{fill:#FAA342;}
	.st4{fill:#98722B;}
	.st5{fill:none;stroke:#754C29;stroke-width:2;stroke-linecap:round;stroke-miterlimit:10;}
</style>
<g>
	<g>
		<line class="st0" x1="53.9" y1="177" x2="57.9" y2="197.7"/>
		<line class="st0" x1="66.4" y1="197.7" x2="66.4" y2="176.3"/>
		<line class="st0" x1="76.4" y1="176.3" x2="75.6" y2="197.3"/>
		<line class="st0" x1="88.4" y1="175" x2="84.4" y2="197.7"/>
	</g>
	<path class="st1" d="M71.1,0"/>
	<path class="st2" d="M42.1,157c0,0-83.5-105.8-15.3-139.5c0,0,14.8-11,23.5-12.3c0,0,9-5.8,15.3-3.8c0,0,6.3-2.8,10.8-0.4
		c0,0,9.8-1.3,14,3.9c0,0,0.5-1.3,3.5,1.3c0,0,9,0.5,19.8,10.5c0,0,39,15.3,25.8,64.8S90.6,163,89.1,177H52.8
		C52.8,177,45.8,158.8,42.1,157z"/>
	<path class="st3" d="M65.6,1.5c0,0-24,15.6-18.7,58.3s13.7,94,13.7,94h21.3c0,0,36.2-139.3-5.6-152.7C76.3,1.1,72.2-1.4,65.6,1.5z"
		/>
	<path class="st3" d="M49.6,5.4c0,0-58.7,25,0,148.4l1,1.7l-7.9,2l1.1-1.1c0,0-66-99.3-16.9-138.8C26.8,17.5,43.2,5.9,49.6,5.4z"/>
	<path class="st3" d="M94.8,6.4c0,0,55.1,31.7-2.9,147.4l-1.3,1.3l9,2.4c0,0,66.1-106.9,15.9-139.8C115.5,17.6,101.5,5.4,94.8,6.4z"
		/>
	<path class="st3" d="M42.7,157.4l10.4,20.4l36-0.8c0,0,7.6-14.6,10.5-19.6C99.6,157.4,77.6,147.9,42.7,157.4z"/>
	<path class="st4" d="M64.7,216.9c0,0-5.5,1.7-5.8-2.7c-0.3-4.3-1-16-1-16h26.5l-1.5,15.5c0,0,0.7,3.5-2,3.5
		C78.2,217.2,64.7,216.9,64.7,216.9z"/>
	<line class="st5" x1="56.9" y1="197.7" x2="85.1" y2="197.7"/>
</g>
</svg>
