<svg id="Content" xmlns="http://www.w3.org/2000/svg" xmlns:xlink="http://www.w3.org/1999/xlink" viewBox="0 0 3384.13 2751.57"><defs><style>.cls-1{fill:#fff6c7;}.cls-2{fill:#091318;}.cls-12,.cls-25,.cls-3,.cls-4,.cls-7{fill:none;stroke-miterlimit:10;}.cls-12,.cls-3,.cls-4,.cls-7{stroke:#324d51;}.cls-3,.cls-7{stroke-width:10px;}.cls-25,.cls-4,.cls-7{stroke-linecap:round;}.cls-4{stroke-width:6px;}.cls-5{fill:#f05123;}.cls-6{fill:#faa342;}.cls-8{fill:#324d51;}.cls-9{fill:#578476;}.cls-10{fill:#47665a;}.cls-11{fill:#fff;}.cls-12{stroke-width:7px;}.cls-13,.cls-15,.cls-16,.cls-19,.cls-24{opacity:0.1;}.cls-13{fill:url(#Gradiente_sem_nome_50);}.cls-14{opacity:0.06;fill:url(#Gradiente_sem_nome_50-2);}.cls-15{fill:url(#Gradiente_sem_nome_50-3);}.cls-16{fill:url(#Gradiente_sem_nome_50-4);}.cls-17{opacity:0.07;fill:url(#Gradiente_sem_nome_50-5);}.cls-18,.cls-20{opacity:0.04;}.cls-18{fill:url(#Gradiente_sem_nome_50-6);}.cls-19{fill:url(#Gradiente_sem_nome_50-7);}.cls-20{fill:url(#Gradiente_sem_nome_50-8);}.cls-21{opacity:0.25;}.cls-22{fill:url(#Gradiente_sem_nome_50-9);}.cls-23{mask:url(#mask);}.cls-25{stroke:#172328;stroke-width:20px;}.cls-26{fill:#172328;}.cls-27{filter:url(#luminosity-noclip);}</style><linearGradient id="Gradiente_sem_nome_50" x1="345.12" y1="623.39" x2="342.81" y2="755.57" gradientUnits="userSpaceOnUse"><stop offset="0" stop-color="#fff6c7"/><stop offset="0.8" stop-color="#fff6c7" stop-opacity="0"/></linearGradient><linearGradient id="Gradiente_sem_nome_50-2" x1="665.79" y1="569.64" x2="664.87" y2="622.09" xlink:href="#Gradiente_sem_nome_50"/><linearGradient id="Gradiente_sem_nome_50-3" x1="626.43" y1="1048.21" x2="625.37" y2="1109.43" xlink:href="#Gradiente_sem_nome_50"/><linearGradient id="Gradiente_sem_nome_50-4" x1="793.66" y1="88.86" x2="792.27" y2="168.73" xlink:href="#Gradiente_sem_nome_50"/><linearGradient id="Gradiente_sem_nome_50-5" x1="1021.42" y1="690.7" x2="1019.6" y2="794.92" gradientTransform="matrix(-1, 0, 0, 1, 3008.22, 0)" xlink:href="#Gradiente_sem_nome_50"/><linearGradient id="Gradiente_sem_nome_50-6" x1="1348.6" y1="606.57" x2="1347.52" y2="668.98" gradientTransform="matrix(-1, 0, 0, 1, 3008.22, 0)" xlink:href="#Gradiente_sem_nome_50"/><linearGradient id="Gradiente_sem_nome_50-7" x1="1162.39" y1="1066.73" x2="1161.25" y2="1131.9" gradientTransform="matrix(-1, 0, 0, 1, 3008.22, 0)" xlink:href="#Gradiente_sem_nome_50"/><linearGradient id="Gradiente_sem_nome_50-8" x1="821.02" y1="137.57" x2="819.9" y2="201.63" gradientTransform="matrix(-1, 0, 0, 1, 3008.22, 0)" xlink:href="#Gradiente_sem_nome_50"/><linearGradient id="Gradiente_sem_nome_50-9" x1="2222.51" y1="474.01" x2="2224.71" y2="599.54" xlink:href="#Gradiente_sem_nome_50"/><filter id="luminosity-noclip" x="2087.27" y="474" width="221.85" height="79.44" filterUnits="userSpaceOnUse" color-interpolation-filters="sRGB"><feFlood flood-color="#fff" result="bg"/><feBlend in="SourceGraphic" in2="bg"/></filter><mask id="mask" x="2112.68" y="474" width="221.85" height="79.44" maskUnits="userSpaceOnUse"><g class="cls-27"><g transform="translate(25.41)"><path d="M2198.2,474a62.76,62.76,0,0,0-62.75,61.75h125.5A62.76,62.76,0,0,0,2198.2,474Z"/></g></g></mask><symbol id="Estrela" data-name="Estrela" viewBox="0 0 7.14 7.14"><circle class="cls-1" cx="3.57" cy="3.57" r="3.57"/></symbol><symbol id="sprekle" data-name="sprekle" viewBox="0 0 19.5 19.5"><path class="cls-1" d="M1,8.75a1,1,0,0,0,0,2H8.75v-2Z"/><path class="cls-1" d="M18.5,8.75H10.75v2H18.5a1,1,0,0,0,0-2Z"/><path class="cls-1" d="M10.75,1a1,1,0,0,0-2,0V18.5a1,1,0,0,0,2,0V1Z"/></symbol></defs><title>CeuNoite</title><g id="Content-2" data-name="Content"><rect class="cls-2" x="24.93" width="2560" height="1440"/></g><rect id="CaminhoFoguete" class="cls-1" x="1196.13" y="1907" width="102.4" height="320.56"/><path class="cls-3" d="M1160.11,524.88" transform="translate(25.41)"/><g id="Foguete"><line class="cls-4" x1="1247.69" y1="1554" x2="1247.69" y2="1488"/><path class="cls-5" d="M1222.75,2096.67s-5.6-44.77-40.63-94.92c-9.41-13.47-19.54-24.62-22.32-43.65-3-20.54,4.22-38.78,10.92-51.1h51.84C1231.51,2057.55,1222.75,2096.67,1222.75,2096.67Z" transform="translate(25.41)"/><path class="cls-5" d="M1221.88,2096.67a5.15,5.15,0,0,1,.23-1.54c.24-1.5.52-3,.83-4.49,1-4.9,2.25-9.81,3.64-14.63q.88-3,1.84-6,1.49-4.63,3.17-9.2,1.88-5.13,4-10.18,2.33-5.56,4.91-11,2.81-5.92,5.92-11.7,3.34-6.21,7-12.24,3.92-6.43,8.2-12.63l.89-1.28c9.41-13.47,19.54-24.62,22.32-43.65,3-20.54-4.22-38.78-10.92-51.1h-51.84C1213.13,2057.54,1221.88,2096.67,1221.88,2096.67Z" transform="translate(25.41)"/><path class="cls-5" d="M1222.06,2105.06s-1.26-19-2.52-23.67l5.79-.91c-.08.39-.2,1-.33,1.67-.86,4.55-1.19,8-1.39,9.84C1223.31,2095,1222.84,2099.12,1222.06,2105.06Z" transform="translate(25.41)"/><path class="cls-5" d="M1226.47,2080" transform="translate(25.41)"/><path class="cls-6" d="M1220.22,2005s-3-23.14-21.86-49.06c-5.06-7-10.51-12.73-12-22.56-1.62-10.62,2.27-20,5.87-26.41h27.9C1224.93,1984.82,1220.22,2005,1220.22,2005Z" transform="translate(25.41)"/><path class="cls-6" d="M1219.75,2005a2.56,2.56,0,0,1,.12-.8c.13-.78.28-1.55.44-2.32.54-2.53,1.21-5.07,2-7.56q.47-1.56,1-3.11.8-2.4,1.7-4.76,1-2.65,2.15-5.26,1.25-2.88,2.64-5.69,1.51-3.06,3.19-6,1.8-3.21,3.77-6.33,2.11-3.32,4.41-6.53l.48-.66c5.06-7,10.51-12.73,12-22.56,1.62-10.62-2.27-20-5.87-26.41h-27.9C1215,1984.82,1219.75,2005,1219.75,2005Z" transform="translate(25.41)"/><path class="cls-6" d="M1220,2008.91c-.29-2-.46-3.59-.57-4.74a44.41,44.41,0,0,0-.89-6.77c-.07-.29-.13-.53-.17-.69l3.24,0c0,.2-.11.5-.18.86-.16.82-.29,1.57-.39,2.24-.2,1.31-.32,2.46-.36,2.85C1220.53,2004.15,1220.31,2006.12,1220,2008.91Z" transform="translate(25.41)"/><path class="cls-6" d="M1222.21,1996.45" transform="translate(25.41)"/><line class="cls-7" x1="1247.69" y1="1494.33" x2="1247.69" y2="1488"/><path class="cls-8" d="M1274.12,1835.7a.69.69,0,0,1,.17-.13,1.13,1.13,0,0,1,.7,0c14.14,2.11,29.82,10.25,41.34,19.31a46.2,46.2,0,0,1,17.53,28.42c1.56,8.2,1.68,16.66,2.81,24.94a383.51,383.51,0,0,0,12.17,56.42q4.07,13.8,9.08,27.25c1.65,4.42,1.54,8.3-1.18,12.33a11.18,11.18,0,0,1-9.62,4.81c-3,0-5.49-3.81-7.07-6.12a110.46,110.46,0,0,1-8.45-15.54c-14.1-29.83-22.38-64.44-46.9-86.68a52,52,0,0,0-15.25-10.07c-2-.82-4.46-.77-6.59-1.12a4,4,0,0,1-2.76-1.52,5.33,5.33,0,0,1-.69-2c-1.51-8.33,1.46-16.47,4.38-24,3.31-8.53,6.53-17.12,10-25.59A1.89,1.89,0,0,1,1274.12,1835.7Z" transform="translate(25.41)"/><path class="cls-8" d="M1149,1835.7a.69.69,0,0,0-.17-.13,1.13,1.13,0,0,0-.7,0c-14.14,2.11-29.82,10.25-41.34,19.31a46.2,46.2,0,0,0-17.53,28.42c-1.56,8.2-1.68,16.66-2.81,24.94a383.51,383.51,0,0,1-12.17,56.42q-4.07,13.8-9.08,27.25c-1.65,4.42-1.54,8.3,1.18,12.33A11.18,11.18,0,0,0,1076,2009c3,0,5.49-3.81,7.07-6.12a110.46,110.46,0,0,0,8.45-15.54c14.1-29.83,22.38-64.44,46.9-86.68a52,52,0,0,1,15.25-10.07c2-.82,4.46-.77,6.59-1.12a4,4,0,0,0,2.76-1.52,5.33,5.33,0,0,0,.69-2c1.51-8.33-1.46-16.47-4.38-24-3.31-8.53-6.53-17.12-10-25.59A1.88,1.88,0,0,0,1149,1835.7Z" transform="translate(25.41)"/><path class="cls-9" d="M1222.56,1907q-.14-180.5-.28-361c-31.22,28.45-72.65,74.7-91.86,137.13-28,91,5.27,170.76,40.3,223.87Z" transform="translate(25.41)"/><path class="cls-9" d="M1273.92,1907c34.74-53.1,67.58-132.68,39.81-223.48-19.1-62.44-60.28-108.68-91.33-137.13q-.14,180.3-.28,360.61Z" transform="translate(25.41)"/><path class="cls-10" d="M1222.56,1907q-.14-180.5-.28-361c-31.22,28.45-72.65,74.7-91.86,137.13-28,91,5.27,170.76,40.3,223.87Z" transform="translate(25.41)"/><path class="cls-8" d="M1222.22,1568.26c-3.26,0-6.82-.14-10.65-.51-3.63-.35-7-.86-10-1.44q-2,2.15-4.11,4.39t-4.11,4.54c4.25.85,8.95,1.59,14,2.1a148.11,148.11,0,0,0,14.89.75Q1222.22,1573.18,1222.22,1568.26Z" transform="translate(25.41)"/><path class="cls-8" d="M1251,1575.42q-2-2.28-4.14-4.59t-4-4.34c-3.8.68-7.14,1.09-9.9,1.34-5.35.49-9.29.45-10.3.45h-.33q0,4.91,0,9.82h.33A136.41,136.41,0,0,0,1251,1575.42Z" transform="translate(25.41)"/><path class="cls-8" d="M1130.36,1822q1.61,5.5,3.59,11.34,1.92,5.66,3.93,10.85c14.88,1.72,28.25,2.8,39.81,3.48,7.8.46,24,1.25,44.69,1.25h.37q0-11.72,0-23.44h-.35Q1176.69,1825.57,1130.36,1822Z" transform="translate(25.41)"/><path class="cls-8" d="M1222.41,1849c14.14.05,29.07-.32,44.71-1.25,13.71-.82,26.81-2,39.27-3.45,1.45-3.34,2.89-7,4.25-11s2.42-7.77,3.3-11.29q-20.66,1.69-42.77,2.65-25.24,1.06-48.74.95Q1222.42,1837.23,1222.41,1849Z" transform="translate(25.41)"/><path class="cls-8" d="M1219.89,1706.06c-15.51,0-28.13-16.15-28.13-36s12.62-36,28.13-36,28.13,16.15,28.13,36S1235.4,1706.06,1219.89,1706.06Z" transform="translate(25.41)"/><path class="cls-11" d="M1219.89,1636.56c14.13,0,25.63,15,25.63,33.5s-11.5,33.5-25.63,33.5-25.63-15-25.63-33.5,11.5-33.5,25.63-33.5m0-5c-16.91,0-30.63,17.24-30.63,38.5s13.71,38.5,30.63,38.5,30.63-17.24,30.63-38.5-13.71-38.5-30.63-38.5Z" transform="translate(25.41)"/><path class="cls-8" d="M1240.36,1820.31c0,12.55-20.36,188.69-20.36,188.69s-20.36-176.14-20.36-188.69,9.11-22.72,20.36-22.72S1240.36,1807.76,1240.36,1820.31Z" transform="translate(25.41)"/><line class="cls-12" x1="1228.72" y1="1735.34" x2="1265.6" y2="1735.34"/><line class="cls-12" x1="1228.72" y1="1774" x2="1265.6" y2="1774"/></g><path class="cls-8" d="M1194,359.64" transform="translate(25.41)"/><path class="cls-5" d="M1099.79,818.77" transform="translate(25.41)"/><path id="Fumaca1" class="cls-1" d="M1919.17,2675.68a36.5,36.5,0,0,0-8.61,1,91.27,91.27,0,0,0-85.21-58.58c-.79,0-1.58,0-2.37.06a74.1,74.1,0,0,0-35.74-42.12,88.82,88.82,0,0,0-101.91-132,130.17,130.17,0,0,0-190.65-91.23,37.11,37.11,0,0,0-45-43.12,64.49,64.49,0,0,0-102.37-64.53,22.36,22.36,0,0,0-21.34-19.16,28.29,28.29,0,0,0-33.8-45.38,20.72,20.72,0,0,0-35.9-6.25,11.95,11.95,0,0,0-14.23.81,13,13,0,0,0-21.36,5.15,13.2,13.2,0,0,0-9.56-2.17,19.5,19.5,0,0,0-38.1,5.66,28.3,28.3,0,1,0-41.93,36.18,22.36,22.36,0,0,0-21.34,19.16,64.5,64.5,0,0,0-102.37,64.53,37.12,37.12,0,0,0-45.18,42,130.17,130.17,0,0,0-190.61,92.29,88.8,88.8,0,0,0-101.75,132,74,74,0,0,0-37.32,47.51,91.35,91.35,0,0,0-117.85,52.57A36.45,36.45,0,0,0,470,2700.56H1953.73A36.45,36.45,0,0,0,1919.17,2675.68Z" transform="translate(25.41)"/><path id="Fumaca2" class="cls-6" d="M1604.52,2583.56a51.79,51.79,0,0,0-33.1,11.89,74.37,74.37,0,0,0-114.28-25.91c-1.31-1.07-2.66-2.08-4-3.06a90.5,90.5,0,0,0-152.69-51.19,136,136,0,0,0-215.85,44.24,57.56,57.56,0,0,0-13.55,10,93,93,0,0,0-164.94,40c-.52,0-1,0-1.55,0a45.78,45.78,0,0,0-24,6.78,63,63,0,1,0-13.49,65.8,46,46,0,0,0,64.95,10.35,93,93,0,0,0,150-27,136.06,136.06,0,0,0,252.92.39,89.88,89.88,0,0,0,14,3.45,74.36,74.36,0,0,0,108.25,15.46,74.35,74.35,0,0,0,108.08-15.22,52,52,0,1,0,39.29-86Z" transform="translate(25.41)"/><g id="FumacaP1"><circle class="cls-1" cx="1153.49" cy="1994.68" r="8.12"/><circle class="cls-1" cx="1129.14" cy="2018.49" r="3.93"/><circle class="cls-1" cx="1147.32" cy="2094.72" r="1.95"/><circle class="cls-1" cx="1081.43" cy="2064.06" r="9.5"/><circle class="cls-1" cx="1095.35" cy="2101.49" r="2.6"/><circle class="cls-1" cx="1112.97" cy="2149.56" r="5.9"/><circle class="cls-1" cx="1067.43" cy="2129.06" r="4.5"/><circle class="cls-1" cx="1056.48" cy="2196.16" r="9.55"/><circle class="cls-1" cx="1112.97" cy="2202.06" r="5.9"/><circle class="cls-1" cx="1167.21" cy="2137.84" r="5.72"/><circle class="cls-1" cx="1160.42" cy="2090.24" r="6.79"/></g><g id="FumacaP2"><circle class="cls-1" cx="1322.69" cy="2015.67" r="6.76"/><circle class="cls-1" cx="1326.07" cy="2057.94" r="3.38"/><circle class="cls-1" cx="1344.16" cy="2114.81" r="9.75"/><circle class="cls-1" cx="1360.03" cy="2067.44" r="6.12"/><circle class="cls-1" cx="1382.49" cy="2035.89" r="4.56"/><circle class="cls-1" cx="1399.93" cy="2078.56" r="5"/><circle class="cls-1" cx="1391.53" cy="2146.88" r="9.04"/><circle class="cls-1" cx="1387.01" cy="2193.08" r="4.52"/></g><use width="7.14" height="7.14" transform="translate(70.87 23.86)" xlink:href="#Estrela"/><use width="7.14" height="7.14" transform="translate(73.7 38.55)" xlink:href="#Estrela"/><use width="7.14" height="7.14" transform="translate(204.89 220.51)" xlink:href="#Estrela"/><use width="7.14" height="7.14" transform="translate(382.33 534.71)" xlink:href="#Estrela"/><use width="7.14" height="7.14" transform="translate(511.62 781.08)" xlink:href="#Estrela"/><use width="7.14" height="7.14" transform="translate(587.07 948.81)" xlink:href="#Estrela"/><use width="7.14" height="7.14" transform="translate(598.2 973.37)" xlink:href="#Estrela"/><use width="7.14" height="7.14" transform="translate(280.44 97.55)" xlink:href="#Estrela"/><use width="7.14" height="7.14" transform="translate(305.3 97.43)" xlink:href="#Estrela"/><use width="7.14" height="7.14" transform="translate(895.95 97.09)" xlink:href="#Estrela"/><use width="7.14" height="7.14" transform="translate(1698.35 96.35)" xlink:href="#Estrela"/><use width="7.14" height="7.14" transform="translate(2414.74 98.18)" xlink:href="#Estrela"/><use width="7.14" height="7.14" transform="translate(2775.94 98.81)" xlink:href="#Estrela"/><use width="7.14" height="7.14" transform="translate(2845.6 98.89)" xlink:href="#Estrela"/><use width="7.14" height="7.14" transform="translate(2855.08 98.96)" xlink:href="#Estrela"/><use width="7.14" height="7.14" transform="translate(597.56 129.08)" xlink:href="#Estrela"/><use width="7.14" height="7.14" transform="translate(673.15 314.59)" xlink:href="#Estrela"/><use width="7.14" height="7.14" transform="translate(958.04 1029.92)" xlink:href="#Estrela"/><use width="7.14" height="7.14" transform="translate(1038.54 1415.61)" xlink:href="#Estrela"/><use width="7.14" height="7.14" transform="translate(1070.51 260.47)" xlink:href="#Estrela"/><use width="7.14" height="7.14" transform="translate(1016.7 355.65)" xlink:href="#Estrela"/><use width="7.14" height="7.14" transform="translate(914.62 566.51)" xlink:href="#Estrela"/><use width="7.14" height="7.14" transform="translate(775.4 807.41)" xlink:href="#Estrela"/><use width="7.14" height="7.14" transform="translate(708.25 974.8)" xlink:href="#Estrela"/><use width="7.14" height="7.14" transform="translate(104.13 542.65)" xlink:href="#Estrela"/><use width="7.14" height="7.14" transform="translate(162.78 681.61)" xlink:href="#Estrela"/><use width="7.14" height="7.14" transform="translate(275.04 969.8)" xlink:href="#Estrela"/><use width="7.14" height="7.14" transform="translate(375.49 1282.94)" xlink:href="#Estrela"/><use width="7.14" height="7.14" transform="translate(409.89 1431.45)" xlink:href="#Estrela"/><use width="7.14" height="7.14" transform="translate(1404.2 113.39)" xlink:href="#Estrela"/><use width="7.14" height="7.14" transform="translate(1480.06 214.53)" xlink:href="#Estrela"/><use width="7.14" height="7.14" transform="translate(1846.76 629.4)" xlink:href="#Estrela"/><use width="7.14" height="7.14" transform="translate(2100.7 949.35)" xlink:href="#Estrela"/><use width="7.14" height="7.14" transform="translate(2237.48 1169.44)" xlink:href="#Estrela"/><use width="7.14" height="7.14" transform="translate(2274.35 1224.25)" xlink:href="#Estrela"/><use width="7.14" height="7.14" transform="translate(1929.74 123.04)" xlink:href="#Estrela"/><use width="7.14" height="7.14" transform="translate(2018.42 228.35)" xlink:href="#Estrela"/><use width="7.14" height="7.14" transform="translate(2353.32 633.98)" xlink:href="#Estrela"/><use width="7.14" height="7.14" transform="translate(2438.1 743.06)" xlink:href="#Estrela"/><use width="7.14" height="7.14" transform="translate(1513.7 494.41)" xlink:href="#Estrela"/><use width="7.14" height="7.14" transform="translate(1586.04 667.13)" xlink:href="#Estrela"/><use width="7.14" height="7.14" transform="translate(1836.99 1051.01)" xlink:href="#Estrela"/><use width="7.14" height="7.14" transform="translate(1941.09 1191.56)" xlink:href="#Estrela"/><use width="7.14" height="7.14" transform="translate(2302.79 348.93)" xlink:href="#Estrela"/><use width="19.5" height="19.5" transform="translate(442.04 197.36)" xlink:href="#sprekle"/><use width="19.5" height="19.5" transform="translate(490.74 285.26)" xlink:href="#sprekle"/><use width="19.5" height="19.5" transform="translate(618.66 558.2)" xlink:href="#sprekle"/><use width="19.5" height="19.5" transform="translate(724.51 826.44)" xlink:href="#sprekle"/><use width="19.5" height="19.5" transform="translate(782.06 933.58)" xlink:href="#sprekle"/><use width="19.5" height="19.5" transform="translate(846 1052.45)" xlink:href="#sprekle"/><use width="19.5" height="19.5" transform="translate(882.44 1151.98)" xlink:href="#sprekle"/><use width="19.5" height="19.5" transform="translate(218.77 349.25)" xlink:href="#sprekle"/><use width="19.5" height="19.5" transform="translate(253.04 518.59)" xlink:href="#sprekle"/><use width="19.5" height="19.5" transform="translate(455.69 1140.4)" xlink:href="#sprekle"/><use width="19.5" height="19.5" transform="translate(554.99 1425.42)" xlink:href="#sprekle"/><use width="19.5" height="19.5" transform="translate(1722 204.76)" xlink:href="#sprekle"/><use width="19.5" height="19.5" transform="translate(1800.43 308.49)" xlink:href="#sprekle"/><use width="19.5" height="19.5" transform="translate(2101.36 684.02)" xlink:href="#sprekle"/><use width="19.5" height="19.5" transform="translate(2240.79 912.68)" xlink:href="#sprekle"/><use width="19.5" height="19.5" transform="translate(2337.09 1080.78)" xlink:href="#sprekle"/><use width="19.5" height="19.5" transform="translate(779.56 389.53)" xlink:href="#sprekle"/><use width="19.5" height="19.5" transform="translate(864 269.99)" xlink:href="#sprekle"/><use width="19.5" height="19.5" transform="translate(1269.83 206.36)" xlink:href="#sprekle"/><use width="19.5" height="19.5" transform="translate(1734.83 309.11)" xlink:href="#sprekle"/><use width="19.5" height="19.5" transform="translate(1794.74 420.99)" xlink:href="#sprekle"/><use width="19.5" height="19.5" transform="translate(1555.44 972.56)" xlink:href="#sprekle"/><use width="19.5" height="19.5" transform="translate(1654.9 927.79)" xlink:href="#sprekle"/><use width="19.5" height="19.5" transform="translate(2130.82 831.66)" xlink:href="#sprekle"/><use width="19.5" height="19.5" transform="translate(2247.24 784.51)" xlink:href="#sprekle"/><use width="19.5" height="19.5" transform="translate(1988.16 451.71)" xlink:href="#sprekle"/><use width="19.5" height="19.5" transform="translate(2485.14 457.45)" xlink:href="#sprekle"/><use width="19.5" height="19.5" transform="translate(2839.16 482.07)" xlink:href="#sprekle"/><use width="19.5" height="19.5" transform="translate(2122.31 97.43)" xlink:href="#sprekle"/><use width="19.5" height="19.5" transform="translate(3364.63 678.47)" xlink:href="#sprekle"/><use width="7.14" height="7.14" transform="translate(64.17 759.71)" xlink:href="#Estrela"/><use width="7.14" height="7.14" transform="translate(76.32 832.61)" xlink:href="#Estrela"/><use width="7.14" height="7.14" transform="translate(154.4 1548.68)" xlink:href="#Estrela"/><use width="7.14" height="7.14" transform="translate(158.35 1774.87)" xlink:href="#Estrela"/><use width="7.14" height="7.14" transform="translate(0 1330.65)" xlink:href="#Estrela"/><use width="7.14" height="7.14" transform="translate(104.3 1194.43)" xlink:href="#Estrela"/><use width="7.14" height="7.14" transform="translate(258.68 1066.34)" xlink:href="#Estrela"/><use width="7.14" height="7.14" transform="translate(2036.25 1344.41)" xlink:href="#Estrela"/><use width="7.14" height="7.14" transform="translate(2202.66 1360.45)" xlink:href="#Estrela"/><use width="7.14" height="7.14" transform="translate(2932.54 1632.47)" xlink:href="#Estrela"/><use width="7.14" height="7.14" transform="translate(90.32 284.1)" xlink:href="#Estrela"/><path class="cls-1" d="M2135.42,675.17" transform="translate(25.41)"/><path class="cls-1" d="M1969.87,670" transform="translate(25.41)"/><path id="Nuvem3" class="cls-13" d="M630.34,719c0-19.7-61.27-36-140.51-38.36-10.27-10.24-25.86-16.78-43.31-16.78a67.69,67.69,0,0,0-15.2,1.72c-16.95-24.87-61.95-42.65-114.8-42.65-54.1,0-100,18.63-115.95,44.42-2-.19-4-.3-6.05-.3-20.49,0-38.21,9.72-46.68,23.84-51.31,1.6-91.32,14.63-91.32,30.47,0,16.92,45.67,30.63,102,30.63,8.25,0,16.27-.3,24-.85a63.05,63.05,0,0,0,12,1.16,60,60,0,0,0,29.3-7.41,121.34,121.34,0,0,0,18.67-6.14c20.53,8.3,46.19,13.24,74,13.24A220.11,220.11,0,0,0,361,747.57c28.6,6.27,66.65,10.1,108.42,10.1C558.3,757.67,630.34,740.36,630.34,719Z" transform="translate(25.41)"/><path id="Nuvem5" class="cls-14" d="M723.22,592.35A24.35,24.35,0,0,0,706,585.7a26.87,26.87,0,0,0-6,.68c-6.73-9.87-24.58-16.93-45.56-16.93-21.47,0-39.68,7.39-46,17.63-.79-.07-1.59-.12-2.4-.12-8.13,0-15.16,3.86-18.53,9.46-20.36.64-36.24,5.81-36.24,12.09,0,6.71,18.12,12.16,40.48,12.16,3.27,0,6.46-.12,9.51-.34a25,25,0,0,0,4.78.46,23.82,23.82,0,0,0,11.63-2.94,48.16,48.16,0,0,0,7.41-2.44,79.53,79.53,0,0,0,29.38,5.26,87.36,87.36,0,0,0,17.65-1.76c11.35,2.49,26.45,4,43,4,35.27,0,63.86-6.87,63.86-15.35C779,599.76,754.67,593.31,723.22,592.35Z" transform="translate(25.41)"/><path id="Nuvem1" class="cls-15" d="M693.45,1074.72a28.41,28.41,0,0,0-20.06-7.77,31.35,31.35,0,0,0-7,.8c-7.85-11.52-28.69-19.75-53.17-19.75-25.05,0-46.3,8.63-53.7,20.57-.92-.09-1.85-.14-2.8-.14-9.49,0-17.7,4.5-21.62,11-23.76.74-42.29,6.78-42.29,14.11,0,7.84,21.15,14.19,47.24,14.19,3.82,0,7.53-.14,11.09-.39a29.2,29.2,0,0,0,5.58.54,27.79,27.79,0,0,0,13.57-3.43,56.2,56.2,0,0,0,8.65-2.84c9.51,3.85,21.39,6.13,34.28,6.13a101.94,101.94,0,0,0,20.6-2c13.25,2.9,30.87,4.68,50.21,4.68,41.16,0,74.52-8,74.52-17.91C758.52,1083.37,730.15,1075.84,693.45,1074.72Z" transform="translate(25.41)"/><path id="Nuvem7" class="cls-16" d="M881.11,123.45c-6.21-6.19-15.62-10.14-26.17-10.14a40.91,40.91,0,0,0-9.18,1c-10.24-15-37.43-25.77-69.37-25.77-32.69,0-60.41,11.26-70.07,26.84-1.2-.11-2.42-.18-3.66-.18-12.38,0-23.09,5.87-28.21,14.41-31,1-55.18,8.84-55.18,18.41,0,10.22,27.6,18.51,61.64,18.51,5,0,9.83-.18,14.47-.51a38.1,38.1,0,0,0,7.28.7,36.27,36.27,0,0,0,17.71-4.48,73.33,73.33,0,0,0,11.28-3.71c12.41,5,27.91,8,44.74,8a133,133,0,0,0,26.88-2.67c17.28,3.79,40.28,6.1,65.52,6.1,53.7,0,97.24-10.46,97.24-23.37C966,134.73,929,124.9,881.11,123.45Z" transform="translate(25.41)"/><path id="Nuvem4" class="cls-17" d="M1761.9,766.09c0-15.53,48.31-28.35,110.79-30.25,8.1-8.08,20.39-13.23,34.15-13.23a53.38,53.38,0,0,1,12,1.36c13.36-19.61,48.84-33.63,90.52-33.63,42.66,0,78.83,14.69,91.43,35,1.57-.15,3.16-.23,4.77-.23,16.16,0,30.13,7.67,36.81,18.8,40.46,1.26,72,11.54,72,24,0,13.34-36,24.16-80.43,24.16-6.51,0-12.83-.23-18.89-.67a49.72,49.72,0,0,1-9.5.92,47.32,47.32,0,0,1-23.1-5.85,95.68,95.68,0,0,1-14.72-4.84c-16.19,6.55-36.42,10.44-58.38,10.44a173.56,173.56,0,0,1-35.08-3.49c-22.55,4.95-52.56,8-85.49,8C1818.71,796.58,1761.9,782.93,1761.9,766.09Z" transform="translate(25.41)"/><path id="Nuvem6" class="cls-18" d="M1591.29,633.6c4.85-4.84,12.21-7.92,20.45-7.92a32,32,0,0,1,7.18.81c8-11.74,29.25-20.14,54.2-20.14,25.54,0,47.2,8.8,54.74,21,.94-.09,1.89-.14,2.86-.14,9.68,0,18,4.59,22,11.26,24.23.76,43.11,6.91,43.11,14.39,0,8-21.56,14.46-48.16,14.46-3.9,0-7.68-.14-11.31-.4a29.77,29.77,0,0,1-5.69.55,28.34,28.34,0,0,1-13.83-3.5,57.29,57.29,0,0,1-8.81-2.9c-9.69,3.92-21.81,6.25-35,6.25a103.93,103.93,0,0,1-21-2.09c-13.5,3-31.47,4.77-51.19,4.77-42,0-76-8.17-76-18.26C1525,642.41,1553.88,634.74,1591.29,633.6Z" transform="translate(25.41)"/><path id="Nuvem2" class="cls-19" d="M1774.48,1095c5.06-5,12.75-8.27,21.35-8.27a33.38,33.38,0,0,1,7.49.85c8.36-12.26,30.54-21,56.61-21,26.68,0,49.29,9.19,57.17,21.9,1-.09,2-.15,3-.15,10.1,0,18.84,4.79,23,11.76,25.3.79,45,7.21,45,15,0,8.34-22.52,15.11-50.29,15.11-4.07,0-8-.15-11.81-.42a31.09,31.09,0,0,1-5.94.57,29.59,29.59,0,0,1-14.45-3.66,59.84,59.84,0,0,1-9.2-3c-10.12,4.09-22.78,6.53-36.5,6.53A108.54,108.54,0,0,1,1838,1128c-14.1,3.09-32.87,5-53.46,5-43.82,0-79.34-8.54-79.34-19.07C1705.2,1104.16,1735.41,1096.14,1774.48,1095Z" transform="translate(25.41)"/><path id="Nuvem8" class="cls-20" d="M2117.07,165.32c5-5,12.53-8.13,21-8.13a32.81,32.81,0,0,1,7.37.83c8.21-12.05,30-20.67,55.64-20.67,26.22,0,48.45,9,56.2,21.53,1-.09,1.94-.14,2.93-.14,9.93,0,18.52,4.71,22.62,11.56,24.87.78,44.26,7.09,44.26,14.77,0,8.2-22.13,14.85-49.43,14.85-4,0-7.89-.14-11.61-.41a30.56,30.56,0,0,1-5.84.56,29.09,29.09,0,0,1-14.2-3.59,58.81,58.81,0,0,1-9-3c-10,4-22.39,6.42-35.88,6.42a106.68,106.68,0,0,1-21.56-2.15c-13.86,3-32.3,4.89-52.55,4.89-43.07,0-78-8.39-78-18.74C2049,174.36,2078.67,166.48,2117.07,165.32Z" transform="translate(25.41)"/><g id="Planeta" class="cls-21"><circle class="cls-22" cx="2223.61" cy="536.77" r="62.77"/><g class="cls-23"><path class="cls-1" d="M2198.2,520.11c-61.26,0-110.93,7.46-110.93,16.67s49.66,16.67,110.93,16.67,110.93-7.46,110.93-16.67S2259.46,520.11,2198.2,520.11Zm0,23c-55.5,0-100.5-4.9-100.5-10.94s45-10.94,100.5-10.94,100.5,4.9,100.5,10.94S2253.7,543.11,2198.2,543.11Z" transform="translate(25.41)"/></g><circle class="cls-22" cx="2223.61" cy="536.77" r="62.77"/></g><g id="Satelite" class="cls-24"><line class="cls-25" x1="264.27" y1="182.07" x2="324.19" y2="158.66"/><rect class="cls-8" x="123.24" y="189.17" width="144.41" height="19.69" transform="translate(-33.6 84.74) rotate(-21.33)"/><rect class="cls-8" x="171.79" y="142.54" width="21" height="49.23" transform="translate(-22.91 77.77) rotate(-21.33)"/><rect class="cls-8" x="196.87" y="206.74" width="21" height="49.23" transform="translate(-44.55 91.29) rotate(-21.33)"/><rect class="cls-8" x="104.9" y="103.21" width="121.43" height="42.48" transform="translate(-8.51 68.78) rotate(-21.33)"/><rect class="cls-26" x="126.63" y="110.81" width="77.97" height="27.27" transform="translate(-8.51 68.78) rotate(-21.33)"/><rect class="cls-8" x="163.95" y="252.59" width="121.43" height="42.48" transform="translate(-58.81 100.49) rotate(-21.33)"/><rect class="cls-26" x="184.24" y="259.69" width="80.84" height="28.28" transform="translate(-58.81 100.49) rotate(-21.33)"/></g></svg>