<?xml version="1.0" encoding="utf-8"?>
<!-- Generator: Adobe Illustrator 21.0.2, SVG Export Plug-In . SVG Version: 6.00 Build 0)  -->
<svg version="1.1" xmlns="http://www.w3.org/2000/svg" xmlns:xlink="http://www.w3.org/1999/xlink" x="0px" y="0px"
	 viewBox="0 0 2560 1440" style="enable-background:new 0 0 2560 1440;" xml:space="preserve">
<style type="text/css">
	.st0{fill:#FFF6C7;}
	.st1{display:none;}
	.st2{display:inline;fill:#1DB9EC;}
	.st3{opacity:0.46;}
</style>
<symbol  id="Estrela" viewBox="-3.6 -3.6 7.1 7.1">
	<circle class="st0" cx="0" cy="0" r="3.6"/>
</symbol>
<symbol  id="sprekle" viewBox="-9.8 -9.8 19.5 19.5">
	<path class="st0" d="M-8.8,1c-0.6,0-1-0.4-1-1s0.4-1,1-1H-1v2H-8.8z"/>
	<path class="st0" d="M8.8,1H1v-2h7.8c0.6,0,1,0.4,1,1S9.3,1,8.8,1z"/>
	<path class="st0" d="M1,8.8c0,0.6-0.4,1-1,1s-1-0.4-1-1V1v-2v-7.8c0-0.6,0.4-1,1-1s1,0.4,1,1V-1v2V8.8z"/>
</symbol>
<g id="Camada_2" class="st1">
	<rect class="st2" width="2582.1" height="1465.9"/>
</g>
<g id="Camada_1">
	<g id="Estrelas">
		<g id="Estrelas1" class="st3">
			
				<use xlink:href="#Estrela"  width="7.1" height="7.1" x="-3.6" y="-3.6" transform="matrix(1 0 0 -1 74.4355 3.5703)" style="overflow:visible;"/>
			
				<use xlink:href="#Estrela"  width="7.1" height="7.1" x="-3.6" y="-3.6" transform="matrix(1 0 0 -1 77.2707 18.2608)" style="overflow:visible;"/>
			
				<use xlink:href="#Estrela"  width="7.1" height="7.1" x="-3.6" y="-3.6" transform="matrix(1 0 0 -1 208.4577 200.2198)" style="overflow:visible;"/>
			
				<use xlink:href="#Estrela"  width="7.1" height="7.1" x="-3.6" y="-3.6" transform="matrix(1 0 0 -1 385.9011 514.4178)" style="overflow:visible;"/>
			
				<use xlink:href="#Estrela"  width="7.1" height="7.1" x="-3.6" y="-3.6" transform="matrix(1 0 0 -1 515.1858 760.7885)" style="overflow:visible;"/>
			
				<use xlink:href="#Estrela"  width="7.1" height="7.1" x="-3.6" y="-3.6" transform="matrix(1 0 0 -1 590.6447 928.5228)" style="overflow:visible;"/>
			
				<use xlink:href="#Estrela"  width="7.1" height="7.1" x="-3.6" y="-3.6" transform="matrix(1 0 0 -1 601.7697 953.0748)" style="overflow:visible;"/>
			
				<use xlink:href="#Estrela"  width="7.1" height="7.1" x="-3.6" y="-3.6" transform="matrix(1 0 0 -1 284.0121 77.2557)" style="overflow:visible;"/>
			
				<use xlink:href="#Estrela"  width="7.1" height="7.1" x="-3.6" y="-3.6" transform="matrix(1 0 0 -1 308.8696 77.1372)" style="overflow:visible;"/>
			
				<use xlink:href="#Estrela"  width="7.1" height="7.1" x="-3.6" y="-3.6" transform="matrix(1 0 0 -1 899.5157 76.8017)" style="overflow:visible;"/>
			
				<use xlink:href="#Estrela"  width="7.1" height="7.1" x="-3.6" y="-3.6" transform="matrix(1 0 0 -1 1701.9216 76.0623)" style="overflow:visible;"/>
			
				<use xlink:href="#Estrela"  width="7.1" height="7.1" x="-3.6" y="-3.6" transform="matrix(1 0 0 -1 2418.3149 77.8905)" style="overflow:visible;"/>
			
				<use xlink:href="#Estrela"  width="7.1" height="7.1" x="-3.6" y="-3.6" transform="matrix(1 0 0 -1 2779.5107 78.5172)" style="overflow:visible;"/>
			
				<use xlink:href="#Estrela"  width="7.1" height="7.1" x="-3.6" y="-3.6" transform="matrix(1 0 0 -1 2849.1716 78.6008)" style="overflow:visible;"/>
			
				<use xlink:href="#Estrela"  width="7.1" height="7.1" x="-3.6" y="-3.6" transform="matrix(1 0 0 -1 2858.6455 78.6665)" style="overflow:visible;"/>
			
				<use xlink:href="#Estrela"  width="7.1" height="7.1" x="-3.6" y="-3.6" transform="matrix(1 0 0 -1 601.1262 108.7838)" style="overflow:visible;"/>
			
				<use xlink:href="#Estrela"  width="7.1" height="7.1" x="-3.6" y="-3.6" transform="matrix(1 0 0 -1 676.7214 294.2944)" style="overflow:visible;"/>
			
				<use xlink:href="#Estrela"  width="7.1" height="7.1" x="-3.6" y="-3.6" transform="matrix(1 0 0 -1 961.61 1009.6326)" style="overflow:visible;"/>
			
				<use xlink:href="#Estrela"  width="7.1" height="7.1" x="-3.6" y="-3.6" transform="matrix(1 0 0 -1 1042.1082 1395.3143)" style="overflow:visible;"/>
			
				<use xlink:href="#Estrela"  width="7.1" height="7.1" x="-3.6" y="-3.6" transform="matrix(1 0 0 -1 1074.0844 240.174)" style="overflow:visible;"/>
			
				<use xlink:href="#Estrela"  width="7.1" height="7.1" x="-3.6" y="-3.6" transform="matrix(1 0 0 -1 1020.2678 335.3596)" style="overflow:visible;"/>
			
				<use xlink:href="#Estrela"  width="7.1" height="7.1" x="-3.6" y="-3.6" transform="matrix(1 0 0 -1 918.1897 546.2227)" style="overflow:visible;"/>
			
				<use xlink:href="#Estrela"  width="7.1" height="7.1" x="-3.6" y="-3.6" transform="matrix(1 0 0 -1 778.9716 787.1134)" style="overflow:visible;"/>
			
				<use xlink:href="#Estrela"  width="7.1" height="7.1" x="-3.6" y="-3.6" transform="matrix(1 0 0 -1 711.8231 954.5069)" style="overflow:visible;"/>
			
				<use xlink:href="#Estrela"  width="7.1" height="7.1" x="-3.6" y="-3.6" transform="matrix(1 0 0 -1 107.696 522.363)" style="overflow:visible;"/>
			
				<use xlink:href="#Estrela"  width="7.1" height="7.1" x="-3.6" y="-3.6" transform="matrix(1 0 0 -1 166.3521 661.3198)" style="overflow:visible;"/>
			
				<use xlink:href="#Estrela"  width="7.1" height="7.1" x="-3.6" y="-3.6" transform="matrix(1 0 0 -1 278.6125 949.5098)" style="overflow:visible;"/>
			
				<use xlink:href="#Estrela"  width="7.1" height="7.1" x="-3.6" y="-3.6" transform="matrix(1 0 0 -1 379.0591 1262.6514)" style="overflow:visible;"/>
			
				<use xlink:href="#Estrela"  width="7.1" height="7.1" x="-3.6" y="-3.6" transform="matrix(1 0 0 -1 413.4565 1411.1558)" style="overflow:visible;"/>
			
				<use xlink:href="#Estrela"  width="7.1" height="7.1" x="-3.6" y="-3.6" transform="matrix(1 0 0 -1 1407.7693 93.0971)" style="overflow:visible;"/>
			
				<use xlink:href="#Estrela"  width="7.1" height="7.1" x="-3.6" y="-3.6" transform="matrix(1 0 0 -1 1483.6267 194.2396)" style="overflow:visible;"/>
			
				<use xlink:href="#Estrela"  width="7.1" height="7.1" x="-3.6" y="-3.6" transform="matrix(1 0 0 -1 1850.3336 609.1089)" style="overflow:visible;"/>
			
				<use xlink:href="#Estrela"  width="7.1" height="7.1" x="-3.6" y="-3.6" transform="matrix(1 0 0 -1 2104.2717 929.0611)" style="overflow:visible;"/>
			
				<use xlink:href="#Estrela"  width="7.1" height="7.1" x="-3.6" y="-3.6" transform="matrix(1 0 0 -1 2241.0476 1149.151)" style="overflow:visible;"/>
			
				<use xlink:href="#Estrela"  width="7.1" height="7.1" x="-3.6" y="-3.6" transform="matrix(1 0 0 -1 2277.9187 1203.958)" style="overflow:visible;"/>
			
				<use xlink:href="#Estrela"  width="7.1" height="7.1" x="-3.6" y="-3.6" transform="matrix(1 0 0 -1 1933.3086 102.7483)" style="overflow:visible;"/>
			
				<use xlink:href="#Estrela"  width="7.1" height="7.1" x="-3.6" y="-3.6" transform="matrix(1 0 0 -1 2021.9927 208.0587)" style="overflow:visible;"/>
			
				<use xlink:href="#Estrela"  width="7.1" height="7.1" x="-3.6" y="-3.6" transform="matrix(1 0 0 -1 2356.8931 613.6884)" style="overflow:visible;"/>
			
				<use xlink:href="#Estrela"  width="7.1" height="7.1" x="-3.6" y="-3.6" transform="matrix(1 0 0 -1 2441.6685 722.7639)" style="overflow:visible;"/>
			
				<use xlink:href="#Estrela"  width="7.1" height="7.1" x="-3.6" y="-3.6" transform="matrix(1 0 0 -1 1517.2722 474.1134)" style="overflow:visible;"/>
			
				<use xlink:href="#Estrela"  width="7.1" height="7.1" x="-3.6" y="-3.6" transform="matrix(1 0 0 -1 1589.6151 646.8413)" style="overflow:visible;"/>
			
				<use xlink:href="#Estrela"  width="7.1" height="7.1" x="-3.6" y="-3.6" transform="matrix(1 0 0 -1 1840.5574 1030.7195)" style="overflow:visible;"/>
			
				<use xlink:href="#Estrela"  width="7.1" height="7.1" x="-3.6" y="-3.6" transform="matrix(1 0 0 -1 1944.658 1171.27)" style="overflow:visible;"/>
			
				<use xlink:href="#Estrela"  width="7.1" height="7.1" x="-3.6" y="-3.6" transform="matrix(1 0 0 -1 2306.3582 328.6357)" style="overflow:visible;"/>
			
				<use xlink:href="#sprekle"  width="19.5" height="19.5" x="-9.8" y="-9.8" transform="matrix(1 0 0 -1 451.7908 183.2521)" style="overflow:visible;"/>
			
				<use xlink:href="#sprekle"  width="19.5" height="19.5" x="-9.8" y="-9.8" transform="matrix(1 0 0 -1 500.49 271.1521)" style="overflow:visible;"/>
			
				<use xlink:href="#sprekle"  width="19.5" height="19.5" x="-9.8" y="-9.8" transform="matrix(1 0 0 -1 628.4065 544.0905)" style="overflow:visible;"/>
			
				<use xlink:href="#sprekle"  width="19.5" height="19.5" x="-9.8" y="-9.8" transform="matrix(1 0 0 -1 734.2576 812.3317)" style="overflow:visible;"/>
			
				<use xlink:href="#sprekle"  width="19.5" height="19.5" x="-9.8" y="-9.8" transform="matrix(1 0 0 -1 791.8098 919.4689)" style="overflow:visible;"/>
			
				<use xlink:href="#sprekle"  width="19.5" height="19.5" x="-9.8" y="-9.8" transform="matrix(1 0 0 -1 855.7454 1038.3392)" style="overflow:visible;"/>
			
				<use xlink:href="#sprekle"  width="19.5" height="19.5" x="-9.8" y="-9.8" transform="matrix(1 0 0 -1 892.1949 1137.8691)" style="overflow:visible;"/>
			
				<use xlink:href="#sprekle"  width="19.5" height="19.5" x="-9.8" y="-9.8" transform="matrix(1 0 0 -1 228.523 335.1425)" style="overflow:visible;"/>
			
				<use xlink:href="#sprekle"  width="19.5" height="19.5" x="-9.8" y="-9.8" transform="matrix(1 0 0 -1 262.7942 504.48)" style="overflow:visible;"/>
			
				<use xlink:href="#sprekle"  width="19.5" height="19.5" x="-9.8" y="-9.8" transform="matrix(1 0 0 -1 465.4448 1126.2891)" style="overflow:visible;"/>
			
				<use xlink:href="#sprekle"  width="19.5" height="19.5" x="-9.8" y="-9.8" transform="matrix(1 0 0 -1 564.7372 1411.3091)" style="overflow:visible;"/>
			
				<use xlink:href="#sprekle"  width="19.5" height="19.5" x="-9.8" y="-9.8" transform="matrix(1 0 0 -1 1731.7472 190.6478)" style="overflow:visible;"/>
			
				<use xlink:href="#sprekle"  width="19.5" height="19.5" x="-9.8" y="-9.8" transform="matrix(1 0 0 -1 1810.176 294.3796)" style="overflow:visible;"/>
			
				<use xlink:href="#sprekle"  width="19.5" height="19.5" x="-9.8" y="-9.8" transform="matrix(1 0 0 -1 2111.1067 669.9036)" style="overflow:visible;"/>
			
				<use xlink:href="#sprekle"  width="19.5" height="19.5" x="-9.8" y="-9.8" transform="matrix(1 0 0 -1 2250.5369 898.5653)" style="overflow:visible;"/>
			
				<use xlink:href="#sprekle"  width="19.5" height="19.5" x="-9.8" y="-9.8" transform="matrix(1 0 0 -1 2346.8372 1066.667)" style="overflow:visible;"/>
			
				<use xlink:href="#sprekle"  width="19.5" height="19.5" x="-9.8" y="-9.8" transform="matrix(1 0 0 -1 789.3079 375.4207)" style="overflow:visible;"/>
			
				<use xlink:href="#sprekle"  width="19.5" height="19.5" x="-9.8" y="-9.8" transform="matrix(1 0 0 -1 873.7504 255.8801)" style="overflow:visible;"/>
			
				<use xlink:href="#sprekle"  width="19.5" height="19.5" x="-9.8" y="-9.8" transform="matrix(1 0 0 -1 1279.5841 192.2497)" style="overflow:visible;"/>
			
				<use xlink:href="#sprekle"  width="19.5" height="19.5" x="-9.8" y="-9.8" transform="matrix(1 0 0 -1 1744.583 294.9929)" style="overflow:visible;"/>
			
				<use xlink:href="#sprekle"  width="19.5" height="19.5" x="-9.8" y="-9.8" transform="matrix(1 0 0 -1 1804.493 406.8753)" style="overflow:visible;"/>
			
				<use xlink:href="#sprekle"  width="19.5" height="19.5" x="-9.8" y="-9.8" transform="matrix(1 0 0 -1 1565.1934 958.447)" style="overflow:visible;"/>
			
				<use xlink:href="#sprekle"  width="19.5" height="19.5" x="-9.8" y="-9.8" transform="matrix(1 0 0 -1 1664.6537 913.6801)" style="overflow:visible;"/>
			
				<use xlink:href="#sprekle"  width="19.5" height="19.5" x="-9.8" y="-9.8" transform="matrix(1 0 0 -1 2140.5688 817.5492)" style="overflow:visible;"/>
			
				<use xlink:href="#sprekle"  width="19.5" height="19.5" x="-9.8" y="-9.8" transform="matrix(1 0 0 -1 2256.9932 770.3999)" style="overflow:visible;"/>
			
				<use xlink:href="#sprekle"  width="19.5" height="19.5" x="-9.8" y="-9.8" transform="matrix(1 0 0 -1 1997.911 437.5959)" style="overflow:visible;"/>
			
				<use xlink:href="#sprekle"  width="19.5" height="19.5" x="-9.8" y="-9.8" transform="matrix(1 0 0 -1 2494.894 443.342)" style="overflow:visible;"/>
			
				<use xlink:href="#sprekle"  width="19.5" height="19.5" x="-9.8" y="-9.8" transform="matrix(1 0 0 -1 2848.9075 467.9581)" style="overflow:visible;"/>
			
				<use xlink:href="#sprekle"  width="19.5" height="19.5" x="-9.8" y="-9.8" transform="matrix(1 0 0 -1 2132.0615 83.3131)" style="overflow:visible;"/>
			
				<use xlink:href="#sprekle"  width="19.5" height="19.5" x="-9.8" y="-9.8" transform="matrix(1 0 0 -1 3374.384 664.3613)" style="overflow:visible;"/>
		</g>
		<g id="Estrelas2">
			
				<use xlink:href="#Estrela"  width="7.1" height="7.1" x="-3.6" y="-3.6" transform="matrix(1 0 0 -1 67.7448 739.4178)" style="overflow:visible;"/>
			
				<use xlink:href="#Estrela"  width="7.1" height="7.1" x="-3.6" y="-3.6" transform="matrix(1 0 0 -1 79.887 812.3179)" style="overflow:visible;"/>
			
				<use xlink:href="#Estrela"  width="7.1" height="7.1" x="-3.6" y="-3.6" transform="matrix(1 0 0 -1 157.9695 1528.384)" style="overflow:visible;"/>
			
				<use xlink:href="#Estrela"  width="7.1" height="7.1" x="-3.6" y="-3.6" transform="matrix(1 0 0 -1 161.9201 1754.5819)" style="overflow:visible;"/>
			
				<use xlink:href="#Estrela"  width="7.1" height="7.1" x="-3.6" y="-3.6" transform="matrix(1 0 0 -1 3.5703 1310.3558)" style="overflow:visible;"/>
			
				<use xlink:href="#Estrela"  width="7.1" height="7.1" x="-3.6" y="-3.6" transform="matrix(1 0 0 -1 107.8713 1174.1406)" style="overflow:visible;"/>
			
				<use xlink:href="#Estrela"  width="7.1" height="7.1" x="-3.6" y="-3.6" transform="matrix(1 0 0 -1 262.2459 1046.0482)" style="overflow:visible;"/>
			
				<use xlink:href="#Estrela"  width="7.1" height="7.1" x="-3.6" y="-3.6" transform="matrix(1 0 0 -1 2039.8248 1324.1213)" style="overflow:visible;"/>
			
				<use xlink:href="#Estrela"  width="7.1" height="7.1" x="-3.6" y="-3.6" transform="matrix(1 0 0 -1 2206.2327 1340.1567)" style="overflow:visible;"/>
			
				<use xlink:href="#Estrela"  width="7.1" height="7.1" x="-3.6" y="-3.6" transform="matrix(1 0 0 -1 2936.1084 1612.1826)" style="overflow:visible;"/>
			
				<use xlink:href="#Estrela"  width="7.1" height="7.1" x="-3.6" y="-3.6" transform="matrix(1 0 0 -1 93.8917 263.8096)" style="overflow:visible;"/>
		</g>
		<g id="Estrelas2_2_">
			
				<use xlink:href="#Estrela"  width="7.1" height="7.1" x="-3.6" y="-3.6" transform="matrix(1 0 0 -1 237.3303 627.3177)" style="overflow:visible;"/>
			
				<use xlink:href="#Estrela"  width="7.1" height="7.1" x="-3.6" y="-3.6" transform="matrix(1 0 0 -1 249.4725 700.2177)" style="overflow:visible;"/>
			
				<use xlink:href="#Estrela"  width="7.1" height="7.1" x="-3.6" y="-3.6" transform="matrix(1 0 0 -1 327.555 1416.2839)" style="overflow:visible;"/>
			
				<use xlink:href="#Estrela"  width="7.1" height="7.1" x="-3.6" y="-3.6" transform="matrix(1 0 0 -1 331.5056 1642.4818)" style="overflow:visible;"/>
			
				<use xlink:href="#Estrela"  width="7.1" height="7.1" x="-3.6" y="-3.6" transform="matrix(1 0 0 -1 173.1558 1198.2557)" style="overflow:visible;"/>
			
				<use xlink:href="#Estrela"  width="7.1" height="7.1" x="-3.6" y="-3.6" transform="matrix(1 0 0 -1 277.4568 1062.0404)" style="overflow:visible;"/>
			
				<use xlink:href="#Estrela"  width="7.1" height="7.1" x="-3.6" y="-3.6" transform="matrix(1 0 0 -1 431.8314 933.9481)" style="overflow:visible;"/>
			
				<use xlink:href="#Estrela"  width="7.1" height="7.1" x="-3.6" y="-3.6" transform="matrix(1 0 0 -1 2209.4104 1212.0212)" style="overflow:visible;"/>
			
				<use xlink:href="#Estrela"  width="7.1" height="7.1" x="-3.6" y="-3.6" transform="matrix(1 0 0 -1 2375.8184 1228.0566)" style="overflow:visible;"/>
			
				<use xlink:href="#Estrela"  width="7.1" height="7.1" x="-3.6" y="-3.6" transform="matrix(1 0 0 -1 3105.6938 1500.0825)" style="overflow:visible;"/>
			
				<use xlink:href="#Estrela"  width="7.1" height="7.1" x="-3.6" y="-3.6" transform="matrix(1 0 0 -1 263.4772 151.7095)" style="overflow:visible;"/>
		</g>
		<g id="Estrelas2_1_">
			
				<use xlink:href="#Estrela"  width="7.1" height="7.1" x="-3.6" y="-3.6" transform="matrix(1 0 0 -1 352.3882 726.3276)" style="overflow:visible;"/>
			
				<use xlink:href="#Estrela"  width="7.1" height="7.1" x="-3.6" y="-3.6" transform="matrix(1 0 0 -1 364.5303 799.2277)" style="overflow:visible;"/>
			
				<use xlink:href="#Estrela"  width="7.1" height="7.1" x="-3.6" y="-3.6" transform="matrix(1 0 0 -1 442.6129 1515.2938)" style="overflow:visible;"/>
			
				<use xlink:href="#Estrela"  width="7.1" height="7.1" x="-3.6" y="-3.6" transform="matrix(1 0 0 -1 446.5635 1741.4917)" style="overflow:visible;"/>
			
				<use xlink:href="#Estrela"  width="7.1" height="7.1" x="-3.6" y="-3.6" transform="matrix(1 0 0 -1 288.2137 1297.2656)" style="overflow:visible;"/>
			
				<use xlink:href="#Estrela"  width="7.1" height="7.1" x="-3.6" y="-3.6" transform="matrix(1 0 0 -1 392.5147 1161.0503)" style="overflow:visible;"/>
			
				<use xlink:href="#Estrela"  width="7.1" height="7.1" x="-3.6" y="-3.6" transform="matrix(1 0 0 -1 546.8893 1032.958)" style="overflow:visible;"/>
			
				<use xlink:href="#Estrela"  width="7.1" height="7.1" x="-3.6" y="-3.6" transform="matrix(1 0 0 -1 2324.4683 1311.0311)" style="overflow:visible;"/>
			
				<use xlink:href="#Estrela"  width="7.1" height="7.1" x="-3.6" y="-3.6" transform="matrix(1 0 0 -1 2490.8762 1327.0665)" style="overflow:visible;"/>
			
				<use xlink:href="#Estrela"  width="7.1" height="7.1" x="-3.6" y="-3.6" transform="matrix(1 0 0 -1 3220.7517 1599.0924)" style="overflow:visible;"/>
			
				<use xlink:href="#Estrela"  width="7.1" height="7.1" x="-3.6" y="-3.6" transform="matrix(1 0 0 -1 378.5351 250.7194)" style="overflow:visible;"/>
		</g>
		<g id="Estrelas2_3_">
			
				<use xlink:href="#Estrela"  width="7.1" height="7.1" x="-3.6" y="-3.6" transform="matrix(1 0 0 -1 639.2737 696.3246)" style="overflow:visible;"/>
			
				<use xlink:href="#Estrela"  width="7.1" height="7.1" x="-3.6" y="-3.6" transform="matrix(1 0 0 -1 651.4158 769.2246)" style="overflow:visible;"/>
			
				<use xlink:href="#Estrela"  width="7.1" height="7.1" x="-3.6" y="-3.6" transform="matrix(1 0 0 -1 729.4984 1485.2908)" style="overflow:visible;"/>
			
				<use xlink:href="#Estrela"  width="7.1" height="7.1" x="-3.6" y="-3.6" transform="matrix(1 0 0 -1 733.449 1711.4886)" style="overflow:visible;"/>
			
				<use xlink:href="#Estrela"  width="7.1" height="7.1" x="-3.6" y="-3.6" transform="matrix(1 0 0 -1 575.0991 1267.2626)" style="overflow:visible;"/>
			
				<use xlink:href="#Estrela"  width="7.1" height="7.1" x="-3.6" y="-3.6" transform="matrix(1 0 0 -1 679.4002 1131.0474)" style="overflow:visible;"/>
			
				<use xlink:href="#Estrela"  width="7.1" height="7.1" x="-3.6" y="-3.6" transform="matrix(1 0 0 -1 833.7747 1002.955)" style="overflow:visible;"/>
			
				<use xlink:href="#Estrela"  width="7.1" height="7.1" x="-3.6" y="-3.6" transform="matrix(1 0 0 -1 2611.3538 1281.0281)" style="overflow:visible;"/>
			
				<use xlink:href="#Estrela"  width="7.1" height="7.1" x="-3.6" y="-3.6" transform="matrix(1 0 0 -1 2777.7617 1297.0635)" style="overflow:visible;"/>
			
				<use xlink:href="#Estrela"  width="7.1" height="7.1" x="-3.6" y="-3.6" transform="matrix(1 0 0 -1 3507.6372 1569.0894)" style="overflow:visible;"/>
			
				<use xlink:href="#Estrela"  width="7.1" height="7.1" x="-3.6" y="-3.6" transform="matrix(1 0 0 -1 665.4206 220.7164)" style="overflow:visible;"/>
		</g>
	</g>
</g>
</svg>
