<?xml version="1.0" encoding="utf-8"?>
<!-- Generator: Adobe Illustrator 21.0.2, SVG Export Plug-In . SVG Version: 6.00 Build 0)  -->
<svg version="1.1" id="Nuvens" xmlns="http://www.w3.org/2000/svg" xmlns:xlink="http://www.w3.org/1999/xlink" x="0px" y="0px"
	 viewBox="0 0 2560 1440" style="enable-background:new 0 0 2560 1440;" xml:space="preserve">
<style type="text/css">
	.st0{opacity:0.23;fill:url(#Nuvem3_8_);enable-background:new    ;}
	.st1{opacity:0.51;fill:url(#Nuvem3_9_);enable-background:new    ;}
	.st2{opacity:0.51;fill:url(#x4_2_);enable-background:new    ;}
	.st3{opacity:0.23;fill:url(#Nuvem4_2_);enable-background:new    ;}
	.st4{opacity:0.23;fill:url(#Nuvem4_3_);enable-background:new    ;}
	.st5{opacity:0.51;fill:url(#Nuvem3_10_);enable-background:new    ;}
	.st6{opacity:0.51;fill:url(#Nuvem3_11_);enable-background:new    ;}
	.st7{opacity:0.53;fill:url(#Nuvem2_1_);enable-background:new    ;}
	.st8{opacity:0.29;fill:url(#Nuvem3_12_);enable-background:new    ;}
	.st9{opacity:4.000000e-02;fill:url(#Nuvem8_1_);enable-background:new    ;}
	.st10{opacity:0.54;fill:url(#Nuvem5_2_);enable-background:new    ;}
	.st11{opacity:0.36;fill:url(#Nuvem5_3_);enable-background:new    ;}
	.st12{opacity:0.54;fill:url(#Nuvem5_5_);enable-background:new    ;}
	.st13{opacity:0.56;fill:url(#Nuvem1_1_);enable-background:new    ;}
	.st14{opacity:0.23;fill:url(#Nuvem3_13_);enable-background:new    ;}
	.st15{opacity:0.23;fill:url(#Nuvem3_14_);enable-background:new    ;}
	.st16{opacity:0.4;fill:url(#Nuvem3_15_);enable-background:new    ;}
	.st17{opacity:0.29;fill:url(#Nuvem7_1_);enable-background:new    ;}
</style>
<g id="x5">
	
		<linearGradient id="Nuvem3_8_" gradientUnits="userSpaceOnUse" x1="2209.749" y1="945.7028" x2="2207.6323" y2="824.4438" gradientTransform="matrix(1 0 0 -1 0 1440)">
		<stop  offset="0" style="stop-color:#FFF6C7"/>
		<stop  offset="0.795" style="stop-color:#FFF6C7;stop-opacity:0"/>
	</linearGradient>
	<path id="Nuvem3_4_" class="st0" d="M2471.5,582.2c0-18.1-56.3-33-128.9-35.2c-9.5-9.4-23.8-15.4-39.7-15.4
		c-4.9,0-9.5,0.6-13.9,1.6c-15.5-22.9-56.8-39.2-105.4-39.2c-49.6,0-91.8,17.1-106.4,40.7c-1.8-0.2-3.7-0.3-5.6-0.3
		c-18.8,0-35.1,8.9-42.9,21.8c-47.1,1.5-83.8,13.4-83.8,28c0,15.5,41.9,28.1,93.6,28.1c7.6,0,15-0.3,22-0.8c3.6,0.7,7.3,1.1,11,1.1
		c10,0,19.3-2.5,26.9-6.8c6.5-1.7,12.3-3.5,17.2-5.6c18.8,7.6,42.4,12.1,67.9,12.1c14.4,0,28.2-1.5,40.8-4
		c26.2,5.8,61.2,9.3,99.5,9.3C2405.3,617.7,2471.5,601.8,2471.5,582.2z"/>
	
		<linearGradient id="Nuvem3_9_" gradientUnits="userSpaceOnUse" x1="2349.9587" y1="1158.7321" x2="2348.4299" y2="1071.1428" gradientTransform="matrix(1 0 0 -1 0 1440)">
		<stop  offset="0" style="stop-color:#FFF6C7"/>
		<stop  offset="0.795" style="stop-color:#FFF6C7;stop-opacity:0"/>
	</linearGradient>
	<path id="Nuvem3_7_" class="st1" d="M2539,344.7c0-13-40.7-23.9-93.1-25.4c-6.8-6.8-17.2-11.1-28.7-11.1c-3.5,0-6.9,0.4-10.1,1.1
		c-11.2-16.5-41-28.3-76.1-28.3c-35.9,0-66.3,12.4-76.8,29.5c-1.3-0.1-2.7-0.2-4-0.2c-13.6,0-25.3,6.4-30.9,15.8
		c-34,1.1-60.6,9.7-60.6,20.2c0,11.2,30.3,20.3,67.6,20.3c5.5,0,10.8-0.2,15.9-0.6c2.6,0.5,5.2,0.7,8,0.7c7.2,0,13.9-1.8,19.5-5
		c4.7-1.2,8.9-2.6,12.4-4c13.6,5.5,30.7,8.8,49.1,8.8c10.4,0,20.4-1,29.5-2.9c19,4.1,44.1,6.7,71.9,6.7
		C2491.3,370.3,2539,358.8,2539,344.7z"/>
</g>
<g id="x4">
	
		<linearGradient id="x4_2_" gradientUnits="userSpaceOnUse" x1="1195.7565" y1="354.7933" x2="1193.6399" y2="233.5344" gradientTransform="matrix(1 0 0 -1 0 1440)">
		<stop  offset="0" style="stop-color:#FFF6C7"/>
		<stop  offset="0.795" style="stop-color:#FFF6C7;stop-opacity:0"/>
	</linearGradient>
	<path id="x4" class="st2" d="M1457.5,1172.9c0-18.1-56.3-33-128.9-35.2c-9.5-9.4-23.8-15.4-39.7-15.4c-4.9,0-9.5,0.6-13.9,1.6
		c-15.5-22.9-56.8-39.2-105.4-39.2c-49.6,0-91.8,17.1-106.4,40.7c-1.8-0.2-3.7-0.3-5.6-0.3c-18.8,0-35.1,8.9-42.9,21.8
		c-47.1,1.5-83.8,13.4-83.8,28c0,15.5,41.9,28.1,93.6,28.1c7.6,0,15-0.3,22-0.8c3.6,0.7,7.3,1.1,11,1.1c10,0,19.3-2.5,26.9-6.8
		c6.5-1.7,12.3-3.5,17.2-5.6c18.8,7.6,42.4,12.1,67.9,12.1c14.4,0,28.2-1.5,40.8-4c26.2,5.8,61.2,9.3,99.5,9.3
		C1391.3,1208.5,1457.5,1192.6,1457.5,1172.9z"/>
	<g>
		
			<linearGradient id="Nuvem4_2_" gradientUnits="userSpaceOnUse" x1="1354.2201" y1="824.2392" x2="1352.5498" y2="728.5475" gradientTransform="matrix(-1 0 0 -1 3008.2229 1440)">
			<stop  offset="0" style="stop-color:#FFF6C7"/>
			<stop  offset="0.795" style="stop-color:#FFF6C7;stop-opacity:0"/>
		</linearGradient>
		<path id="Nuvem4" class="st3" d="M1447.6,684.9c0-14.2,44.3-26.1,101.7-27.8c7.4-7.4,18.7-12.1,31.4-12.1c3.9,0,7.5,0.5,11,1.3
			c12.3-18,44.8-30.8,83.1-30.8c39.2,0,72.3,13.5,83.9,32.1c1.5-0.1,2.9-0.2,4.4-0.2c14.9,0,27.6,7.1,33.8,17.3
			c37.2,1.2,66.1,10.6,66.1,22c0,12.2-33,22.2-73.8,22.2c-6,0-11.7-0.2-17.3-0.6c-2.8,0.6-5.7,0.8-8.7,0.8c-7.9,0-15.1-2-21.2-5.3
			c-5.1-1.3-9.7-2.8-13.5-4.4c-14.9,6-33.4,9.5-53.6,9.5c-11.4,0-22.2-1.1-32.2-3.2c-20.7,4.5-48.3,7.3-78.5,7.3
			C1499.7,712.9,1447.6,700.3,1447.6,684.9z"/>
		
			<linearGradient id="Nuvem4_3_" gradientUnits="userSpaceOnUse" x1="1836.2074" y1="635.3722" x2="1834.537" y2="539.6805" gradientTransform="matrix(-1 0 0 -1 3008.2229 1440)">
			<stop  offset="0" style="stop-color:#FFF6C7"/>
			<stop  offset="0.795" style="stop-color:#FFF6C7;stop-opacity:0"/>
		</linearGradient>
		<path id="Nuvem4_1_" class="st4" d="M965.6,873.8c0-14.2,44.3-26.1,101.7-27.8c7.4-7.4,18.7-12.1,31.4-12.1c3.9,0,7.5,0.5,11,1.3
			c12.3-18,44.8-30.8,83.1-30.8c39.2,0,72.3,13.5,83.9,32.1c1.5-0.1,2.9-0.2,4.4-0.2c14.9,0,27.6,7.1,33.8,17.3
			c37.2,1.2,66.1,10.6,66.1,22c0,12.2-33,22.2-73.8,22.2c-6,0-11.7-0.2-17.3-0.6c-2.8,0.6-5.7,0.8-8.7,0.8c-7.9,0-15.1-2-21.2-5.3
			c-5.1-1.3-9.7-2.8-13.5-4.4c-14.9,6-33.4,9.5-53.6,9.5c-11.4,0-22.2-1.1-32.2-3.2c-20.7,4.5-48.3,7.3-78.5,7.3
			C1017.7,901.8,965.6,889.2,965.6,873.8z"/>
		<g>
			
				<linearGradient id="Nuvem3_10_" gradientUnits="userSpaceOnUse" x1="2064.7964" y1="533.8221" x2="2063.365" y2="451.8125" gradientTransform="matrix(1 0 0 -1 0 1440)">
				<stop  offset="0" style="stop-color:#FFF6C7"/>
				<stop  offset="0.795" style="stop-color:#FFF6C7;stop-opacity:0"/>
			</linearGradient>
			<path id="Nuvem3_5_" class="st5" d="M2242,965.5c0-12.2-38.1-22.3-87.3-23.9c-6.3-6.3-16.1-10.5-26.9-10.5
				c-3.3,0-6.4,0.4-9.5,1.1c-10.6-15.4-38.5-26.5-71.3-26.5c-33.6,0-62,11.6-72,27.6c-1.2-0.1-2.5-0.2-3.8-0.2
				c-12.8,0-23.8,6.1-29,14.8c-31.8,1-56.7,9.1-56.7,18.9c0,10.5,28.4,19,63.3,19c5.1,0,10.1-0.2,14.9-0.6c2.4,0.5,4.9,0.7,7.5,0.7
				c6.8,0,13-1.7,18.2-4.6c4.4-1.1,8.4-2.4,11.6-3.9c12.8,5.1,28.7,8.3,46,8.3c9.7,0,19.1-1,27.6-2.8c17.8,3.9,41.4,6.2,67.4,6.2
				C2197.3,989.6,2242,978.8,2242,965.5z"/>
			
				<linearGradient id="Nuvem3_11_" gradientUnits="userSpaceOnUse" x1="2062.4546" y1="262.1375" x2="2060.3379" y2="140.8786" gradientTransform="matrix(1 0 0 -1 0 1440)">
				<stop  offset="0" style="stop-color:#FFF6C7"/>
				<stop  offset="0.795" style="stop-color:#FFF6C7;stop-opacity:0"/>
			</linearGradient>
			<path id="Nuvem3_6_" class="st6" d="M2324.2,1265.7c0-18.1-56.3-33-128.9-35.2c-9.5-9.4-23.8-15.4-39.7-15.4
				c-4.9,0-9.5,0.6-13.9,1.6c-15.5-22.9-56.8-39.2-105.4-39.2c-49.6,0-91.8,17.1-106.4,40.7c-1.8-0.2-3.7-0.3-5.6-0.3
				c-18.8,0-35.1,8.9-42.9,21.8c-47.1,1.5-83.8,13.4-83.8,28c0,15.5,41.9,28.1,93.6,28.1c7.6,0,15-0.3,22-0.8
				c3.6,0.7,7.2,1.1,11,1.1c10,0,19.3-2.5,26.9-6.8c6.5-1.7,12.3-3.5,17.2-5.6c18.8,7.6,42.4,12.1,67.9,12.1c14.4,0,28.2-1.5,40.8-4
				c26.2,5.8,61.2,9.3,99.5,9.3C2258,1301.2,2324.2,1285.3,2324.2,1265.7z"/>
			
				<linearGradient id="Nuvem2_1_" gradientUnits="userSpaceOnUse" x1="1319.0278" y1="393.1293" x2="1317.9828" y2="333.2622" gradientTransform="matrix(-1 0 0 -1 3008.2229 1440)">
				<stop  offset="0" style="stop-color:#FFF6C7"/>
				<stop  offset="0.795" style="stop-color:#FFF6C7;stop-opacity:0"/>
			</linearGradient>
			<path id="Nuvem2" class="st7" d="M1623.6,1072.8c4.7-4.6,11.7-7.6,19.6-7.6c2.4,0,4.7,0.3,6.9,0.7c7.7-11.3,28-19.3,51.9-19.3
				c24.5,0,45.2,8.4,52.5,20.1c0.9-0.1,1.8-0.1,2.8-0.1c9.3,0,17.3,4.4,21.1,10.8c23.2,0.7,41.3,6.6,41.3,13.8
				c0,7.6-20.6,13.9-46.2,13.9c-3.8,0-7.3-0.1-10.8-0.4c-1.7,0.4-3.6,0.6-5.4,0.6c-5,0-9.5-1.2-13.2-3.4c-3.2-0.8-6.1-1.7-8.4-2.8
				c-9.3,3.8-20.9,6-33.5,6c-7.1,0-13.9-0.7-20.1-2c-12.9,2.8-30.2,4.6-49.1,4.6c-40.2,0-72.8-7.8-72.8-17.5
				C1560,1081.3,1587.7,1073.8,1623.6,1072.8z"/>
		</g>
	</g>
</g>
<g id="x3">
	
		<linearGradient id="Nuvem3_12_" gradientUnits="userSpaceOnUse" x1="1535.8636" y1="1300.4866" x2="1533.7471" y2="1179.2275" gradientTransform="matrix(1 0 0 -1 0 1440)">
		<stop  offset="0" style="stop-color:#FFF6C7"/>
		<stop  offset="0.795" style="stop-color:#FFF6C7;stop-opacity:0"/>
	</linearGradient>
	<path id="Nuvem3_3_" class="st8" d="M1797.6,227.2c0-18.1-56.3-33-128.9-35.2c-9.5-9.4-23.8-15.4-39.7-15.4
		c-4.9,0-9.5,0.6-13.9,1.6c-15.5-22.9-56.8-39.2-105.4-39.2c-49.6,0-91.8,17.1-106.4,40.7c-1.8-0.2-3.7-0.3-5.6-0.3
		c-18.8,0-35.1,8.9-42.9,21.8c-47.1,1.5-83.8,13.4-83.8,28c0,15.5,41.9,28.1,93.6,28.1c7.6,0,15-0.3,22-0.8c3.6,0.7,7.3,1.1,11,1.1
		c10,0,19.3-2.5,26.9-6.8c6.5-1.7,12.3-3.5,17.2-5.6c18.8,7.6,42.4,12.1,67.9,12.1c14.4,0,28.2-1.5,40.8-4
		c26.2,5.8,61.2,9.3,99.5,9.3C1731.4,262.7,1797.6,246.9,1797.6,227.2z"/>
	
		<linearGradient id="Nuvem8_1_" gradientUnits="userSpaceOnUse" x1="1005.8892" y1="1245.8789" x2="1004.863" y2="1187.0911" gradientTransform="matrix(-1 0 0 -1 3008.2229 1440)">
		<stop  offset="0" style="stop-color:#FFF6C7"/>
		<stop  offset="0.795" style="stop-color:#FFF6C7;stop-opacity:0"/>
	</linearGradient>
	<path id="Nuvem8" class="st9" d="M1937.9,219.6c4.6-4.6,11.5-7.4,19.3-7.4c2.4,0,4.6,0.3,6.8,0.7c7.5-11.1,27.5-19,51-19
		c24,0,44.5,8.3,51.6,19.7c0.9-0.1,1.7-0.1,2.7-0.1c9.1,0,17,4.3,20.7,10.6c22.9,0.7,40.7,6.5,40.7,13.6c0,7.5-20.3,13.6-45.3,13.6
		c-3.7,0-7.3-0.1-10.6-0.4c-1.7,0.4-3.5,0.6-5.3,0.6c-4.9,0-9.4-1.2-13-3.3c-3.1-0.8-6-1.7-8.3-2.8c-9.2,3.7-20.6,5.9-32.9,5.9
		c-7,0-13.7-0.7-19.8-1.9c-12.8,2.8-29.6,4.5-48.2,4.5c-39.6,0-71.6-7.7-71.6-17.2C1875.5,228,1902.7,220.7,1937.9,219.6z"/>
</g>
<g id="x2">
	
		<linearGradient id="Nuvem5_2_" gradientUnits="userSpaceOnUse" x1="782.4929" y1="800.2684" x2="781.6526" y2="752.1273" gradientTransform="matrix(1 0 0 -1 0 1440)">
		<stop  offset="0" style="stop-color:#FFF6C7"/>
		<stop  offset="0.795" style="stop-color:#FFF6C7;stop-opacity:0"/>
	</linearGradient>
	<path id="Nuvem5" class="st10" d="M835.1,660.6c-3.8-3.8-9.5-6.1-15.8-6.1c-1.9,0-3.8,0.2-5.5,0.6c-6.1-9.1-22.6-15.5-41.8-15.5
		c-19.7,0-36.4,6.8-42.2,16.2c-0.7-0.1-1.5-0.1-2.2-0.1c-7.4,0-13.9,3.6-17,8.7c-18.7,0.6-33.2,5.3-33.2,11.1
		c0,6.1,16.6,11.2,37.2,11.2c3,0,6-0.1,8.7-0.3c1.4,0.3,2.8,0.5,4.4,0.5c3.9,0,7.6-1,10.6-2.7c2.6-0.6,4.9-1.4,6.8-2.2
		c7.4,3,16.8,4.9,27,4.9c5.7,0,11.2-0.6,16.2-1.7c10.5,2.3,24.3,3.7,39.5,3.7c32.4,0,58.6-6.3,58.6-14
		C886.3,667.4,864,661.5,835.1,660.6z"/>
	
		<linearGradient id="Nuvem5_3_" gradientUnits="userSpaceOnUse" x1="887.0214" y1="990.6037" x2="886.1811" y2="942.4627" gradientTransform="matrix(1 0 0 -1 0 1440)">
		<stop  offset="0" style="stop-color:#FFF6C7"/>
		<stop  offset="0.795" style="stop-color:#FFF6C7;stop-opacity:0"/>
	</linearGradient>
	<path id="Nuvem5_1_" class="st11" d="M939.6,470.2c-3.8-3.8-9.5-6.1-15.8-6.1c-1.9,0-3.8,0.2-5.5,0.6c-6.1-9.1-22.6-15.5-41.8-15.5
		c-19.7,0-36.4,6.8-42.2,16.2c-0.7-0.1-1.5-0.1-2.2-0.1c-7.4,0-13.9,3.6-17,8.7c-18.7,0.6-33.2,5.3-33.2,11.1
		c0,6.1,16.6,11.2,37.2,11.2c3,0,6-0.1,8.7-0.3c1.4,0.3,2.8,0.5,4.4,0.5c3.9,0,7.6-1,10.6-2.7c2.6-0.6,4.9-1.4,6.8-2.2
		c7.4,3,16.8,4.9,27,4.9c5.7,0,11.2-0.6,16.2-1.7c10.5,2.3,24.3,3.7,39.5,3.7c32.4,0,58.6-6.3,58.6-14
		C990.8,477,968.4,471.1,939.6,470.2z"/>
	
		<linearGradient id="Nuvem5_5_" gradientUnits="userSpaceOnUse" x1="1381.5815" y1="1047.1354" x2="1380.7412" y2="998.9944" gradientTransform="matrix(1 0 0 -1 0 1440)">
		<stop  offset="0" style="stop-color:#FFF6C7"/>
		<stop  offset="0.795" style="stop-color:#FFF6C7;stop-opacity:0"/>
	</linearGradient>
	<path id="Nuvem5_4_" class="st12" d="M1434.2,413.7c-3.8-3.8-9.5-6.1-15.8-6.1c-1.9,0-3.8,0.2-5.5,0.6
		c-6.1-9.1-22.6-15.5-41.8-15.5c-19.7,0-36.4,6.8-42.2,16.2c-0.7-0.1-1.5-0.1-2.2-0.1c-7.4,0-13.9,3.6-17,8.7
		c-18.7,0.6-33.2,5.3-33.2,11.1c0,6.1,16.6,11.2,37.2,11.2c3,0,6-0.1,8.7-0.3c1.4,0.3,2.8,0.5,4.4,0.5c3.9,0,7.6-1,10.6-2.7
		c2.6-0.6,4.9-1.4,6.8-2.2c7.4,3,16.8,4.9,27,4.9c5.7,0,11.2-0.6,16.2-1.7c10.5,2.3,24.3,3.7,39.5,3.7c32.4,0,58.6-6.3,58.6-14
		C1485.4,420.5,1463,414.5,1434.2,413.7z"/>
	
		<linearGradient id="Nuvem1_1_" gradientUnits="userSpaceOnUse" x1="569.9107" y1="410.1199" x2="568.9302" y2="353.9453" gradientTransform="matrix(1 0 0 -1 0 1440)">
		<stop  offset="0" style="stop-color:#FFF6C7"/>
		<stop  offset="0.795" style="stop-color:#FFF6C7;stop-opacity:0"/>
	</linearGradient>
	<path id="Nuvem1" class="st13" d="M631.5,1054.2c-4.4-4.3-11-7.2-18.4-7.2c-2.2,0-4.4,0.3-6.4,0.7c-7.2-10.6-26.3-18.2-48.8-18.2
		c-23,0-42.5,7.9-49.3,18.9c-0.8-0.1-1.7-0.1-2.6-0.1c-8.7,0-16.2,4.1-19.8,10.1c-21.8,0.6-38.8,6.2-38.8,12.9
		c0,7.2,19.4,13,43.3,13c3.5,0,6.9-0.1,10.2-0.4c1.7,0.3,3.4,0.5,5.1,0.5c4.6,0,8.9-1.2,12.5-3.1c3-0.7,5.7-1.7,7.9-2.6
		c8.7,3.5,19.6,5.6,31.5,5.6c6.7,0,13-0.6,18.9-1.8c12.1,2.7,28.4,4.3,46.1,4.3c37.8,0,68.4-7.3,68.4-16.4
		C691.2,1062.2,665.1,1055.2,631.5,1054.2z"/>
</g>
<g id="x1">
	
		<linearGradient id="Nuvem3_13_" gradientUnits="userSpaceOnUse" x1="311.8111" y1="800.1056" x2="309.6938" y2="678.8065" gradientTransform="matrix(1 0 0 -1 0 1440)">
		<stop  offset="0" style="stop-color:#FFF6C7"/>
		<stop  offset="0.795" style="stop-color:#FFF6C7;stop-opacity:0"/>
	</linearGradient>
	<path id="Nuvem3" class="st14" d="M573.6,727.8c0-18.1-56.3-33-128.9-35.2c-9.5-9.4-23.8-15.4-39.7-15.4c-4.9,0-9.5,0.6-13.9,1.6
		c-15.5-22.9-56.8-39.2-105.4-39.2c-49.6,0-91.8,17.1-106.4,40.7c-1.8-0.2-3.7-0.3-5.6-0.3c-18.8,0-35.1,8.9-42.9,21.8
		C83.7,703.4,47,715.4,47,730c0,15.5,41.9,28.1,93.6,28.1c7.6,0,15-0.3,22-0.8c3.6,0.7,7.3,1.1,11,1.1c10,0,19.3-2.5,26.9-6.8
		c6.5-1.7,12.3-3.5,17.2-5.6c18.8,7.6,42.4,12.1,67.9,12.1c14.4,0,28.2-1.5,40.8-4c26.2,5.8,61.2,9.3,99.5,9.3
		C507.5,763.3,573.6,747.4,573.6,727.8z"/>
	
		<linearGradient id="Nuvem3_14_" gradientUnits="userSpaceOnUse" x1="330.1655" y1="1095.6118" x2="328.0482" y2="974.3127" gradientTransform="matrix(1 0 0 -1 0 1440)">
		<stop  offset="0" style="stop-color:#FFF6C7"/>
		<stop  offset="0.795" style="stop-color:#FFF6C7;stop-opacity:0"/>
	</linearGradient>
	<path id="Nuvem3_1_" class="st15" d="M591.9,432.2c0-18.1-56.3-33-128.9-35.2c-9.5-9.4-23.8-15.4-39.7-15.4
		c-4.9,0-9.5,0.6-13.9,1.6c-15.5-22.9-56.8-39.2-105.4-39.2c-49.6,0-91.8,17.1-106.4,40.7c-1.8-0.2-3.7-0.3-5.6-0.3
		c-18.8,0-35.1,8.9-42.9,21.8c-47.1,1.7-83.8,13.6-83.8,28.2c0,15.5,41.9,28.1,93.6,28.1c7.6,0,15-0.3,22-0.8
		c3.6,0.7,7.3,1.1,11,1.1c10,0,19.3-2.5,26.9-6.8c6.5-1.7,12.3-3.5,17.2-5.6c18.8,7.6,42.4,12.1,67.9,12.1c14.4,0,28.2-1.5,40.8-4
		c26.2,5.8,61.2,9.3,99.5,9.3C525.8,467.8,591.9,451.9,591.9,432.2z"/>
	
		<linearGradient id="Nuvem3_15_" gradientUnits="userSpaceOnUse" x1="280.6069" y1="289.8526" x2="278.4903" y2="168.5937" gradientTransform="matrix(1 0 0 -1 0 1440)">
		<stop  offset="0" style="stop-color:#FFF6C7"/>
		<stop  offset="0.795" style="stop-color:#FFF6C7;stop-opacity:0"/>
	</linearGradient>
	<path id="Nuvem3_2_" class="st16" d="M542.3,1238c0-18.1-56.3-33-128.9-35.2c-9.5-9.4-23.8-15.4-39.7-15.4c-4.9,0-9.5,0.6-13.9,1.6
		c-15.5-22.9-56.8-39.2-105.4-39.2c-49.6,0-91.8,17.1-106.4,40.7c-1.8-0.2-3.7-0.3-5.6-0.3c-18.8,0-35.1,8.9-42.9,21.8
		c-47.1,1.5-83.8,13.4-83.8,28c0,15.5,41.9,28.1,93.6,28.1c7.6,0,15-0.3,22-0.8c3.6,0.7,7.2,1.1,11,1.1c10,0,19.3-2.5,26.9-6.8
		c6.5-1.7,12.3-3.5,17.2-5.6c18.8,7.6,42.4,12.1,67.9,12.1c14.4,0,28.2-1.5,40.8-4c26.2,5.8,61.2,9.3,99.5,9.3
		C476.3,1273.5,542.3,1257.6,542.3,1238z"/>
	
		<linearGradient id="Nuvem7_1_" gradientUnits="userSpaceOnUse" x1="723.296" y1="1290.614" x2="722.0165" y2="1217.3138" gradientTransform="matrix(1 0 0 -1 0 1440)">
		<stop  offset="0" style="stop-color:#FFF6C7"/>
		<stop  offset="0.795" style="stop-color:#FFF6C7;stop-opacity:0"/>
	</linearGradient>
	<path id="Nuvem7" class="st17" d="M803.7,181.2c-5.7-5.7-14.3-9.3-24-9.3c-2.9,0-5.8,0.4-8.4,0.9c-9.4-13.8-34.3-23.7-63.7-23.7
		c-30,0-55.4,10.4-64.3,24.6c-1.1-0.1-2.2-0.2-3.4-0.2c-11.4,0-21.2,5.4-25.9,13.2c-28.4,0.9-50.7,8.1-50.7,16.9
		c0,9.4,25.3,17,56.5,17c4.6,0,9-0.2,13.3-0.5c2.1,0.5,4.4,0.6,6.7,0.6c6.1,0,11.7-1.6,16.2-4.1c3.9-1,7.4-2.1,10.4-3.4
		c11.4,4.6,25.6,7.3,41,7.3c8.7,0,17.1-0.8,24.7-2.5c15.9,3.5,37,5.6,60.1,5.6c49.3,0,89.2-9.6,89.2-21.5
		C881.6,191.5,847.7,182.5,803.7,181.2z"/>
</g>
</svg>
