<svg height="511pt" viewBox="1 -70 511.99998 511" width="511pt" xmlns="http://www.w3.org/2000/svg"><path d="m499.835938 196.710938-17.195313-12.066407-10.304687-15.453125 10.304687-15.453125 17.195313-12.066406c5.121093-3.59375 12.164062.070313 12.164062 6.324219v42.390625c0 6.257812-7.042969 9.917969-12.164062 6.324219zm0 0" fill="#46525e"/><path d="m499.835938 254.582031-17.195313-12.066406-10.304687-15.453125 10.304687-15.453125 17.195313-12.066406c5.121093-3.59375 12.164062.070312 12.164062 6.324219v42.390624c0 6.257813-7.042969 9.917969-12.164062 6.324219zm0 0" fill="#46525e"/><path d="m454.308594.5h-14.179688c-12.230468 0-23.828125 5.433594-31.65625 14.828125l-90.660156 108.792969 72.109375 51.507812 72.113281-51.507812v-115.894532c0-4.265624-3.457031-7.726562-7.726562-7.726562zm0 0" fill="#e9e3d5"/><path d="m408.46875 62.3125v30.902344h-64.902344l-25.753906 30.90625 43.265625 30.90625h57.691406l43.265625-30.90625v-61.808594zm0 0" fill="#d3cdbf"/><path d="m454.308594.5h-14.179688c-3.054687 0-6.070312.339844-9 .992188v53.09375h-22.660156c-4.269531 0-7.726562 3.457031-7.726562 7.726562v30.902344c0 4.269531 3.457031 7.726562 7.726562 7.726562h22.660156v45.257813l30.90625-22.078125v-115.894532c0-4.265624-3.457031-7.726562-7.726562-7.726562zm-38.117188 84.988281v-15.449219h14.9375v15.449219zm0 0" fill="#46525e"/><path d="m142.496094 124.121094c-23.863282 0-46.566406 10.257812-62.28125 28.144531l-23.25 26.457031-35.613282 17.386719c-13.0625 6.378906-21.351562 19.648437-21.351562 34.191406 0 21.011719 17.035156 38.046875 38.046875 38.046875h429.140625c8.535156 0 15.453125-6.917968 15.453125-15.453125v-113.320312c0-8.535157-6.917969-15.453125-15.453125-15.453125zm0 0" fill="#e9e3d5"/><path d="m467.1875 124.121094h-15.453125v113.320312h-451.054687c3.34375 17.597656 18.796874 30.90625 37.367187 30.90625h429.140625c8.535156 0 15.453125-6.917968 15.453125-15.453125v-113.320312c0-8.535157-6.917969-15.453125-15.453125-15.453125zm0 0" fill="#d3cdbf"/><path d="m112.601562 152.265625h-32.386718l-23.25 26.457031h55.636718c7.304688 0 13.226563-5.925781 13.226563-13.230468 0-7.304688-5.921875-13.226563-13.226563-13.226563zm0 0" fill="#3e4954"/><path d="m123.621094 211.6875v15.453125c0 12.140625 8.183594 22.757813 19.925781 25.847656l116.597656 25.667969c51.421875 13.53125 98.8125 39.273438 138.15625 75.039062 12.507813 11.371094 28.804688 17.667969 45.707031 17.667969 4.265626 0 7.726563-3.457031 7.726563-7.722656 0-6.796875 0-145.722656 0-151.953125zm0 0" fill="#d3cdbf"/><path d="m143.546875 252.988281 116.597656 25.667969c51.421875 13.53125 98.8125 39.273438 138.15625 75.039062 12.507813 11.371094 28.804688 17.667969 45.707031 17.667969 4.265626 0 7.726563-3.457031 7.726563-7.722656 0-6.796875 0-145.722656 0-151.953125h-30.90625v120.625c-.59375-.476562-1.171875-.972656-1.738281-1.484375-42.84375-38.949219-95.085938-67.324219-151.078125-82.0625l-113.484375-24.847656v-12.230469h-30.90625v15.453125c0 12.140625 8.183594 22.757813 19.925781 25.847656zm0 0" fill="#46525e"/><path d="m482.628906 183.886719c-.402344-14.730469-12.859375-26.285157-27.59375-26.285157h-99.625c-8.535156 0-15.453125 6.917969-15.453125 15.453126v23.179687c0 8.535156 6.917969 15.453125 15.453125 15.453125h100.1875c15.1875 0 27.449219-12.519531 27.03125-27.800781zm0 0" fill="#fff9eb"/><path d="m455.035156 157.601562h-4.042968c.347656 12.699219-9.851563 23.179688-22.554688 23.179688h-88.480469v15.453125c0 8.535156 6.917969 15.453125 15.453125 15.453125h100.1875c15.1875 0 27.449219-12.519531 27.03125-27.804688-.402344-14.726562-12.859375-26.28125-27.59375-26.28125zm0 0" fill="#d3cdbf"/></svg>